<svg width="100%" height="100%" viewBox="0 0 8981 5201" fill="none" xmlns="http://www.w3.org/2000/svg">
<path d="M0 4756C0 5001.77 199.233 5201 445 5201H8981V445C8981 199.233 8781.77 0 8536 0H445C199.233 0 0 199.233 0 445V4756Z" fill="#050E1E"/>
<rect width="8014" height="4395" transform="matrix(1 0 0 -1 688 4819)" fill="url(#paint0_radial_0_1)"/>
<path d="M786.244 3328L259 4726H8981L8419.13 3328H786.244Z" fill="#867F7F"/>
<path d="M259 5085C259 5149.07 310.935 5201 375 5201H591V4726H259V5085Z" fill="#4D4444"/>
<path d="M8671 5201H8981V4726H8671V5201Z" fill="#4D4444"/>
<rect width="8722" height="186" transform="matrix(1 0 0 -1 259 4912)" fill="#5F5656"/>
<path d="M2760.82 1138.05C2614.02 1050.85 2810.32 945.047 2779.32 793.047C2930.92 937.447 2884.15 1083.21 2841.82 1138.05H2760.82Z" fill="url(#paint1_linear_0_1)"/>
<path d="M2760.68 1138.05H2841.68V1638.55C2841.68 1660.91 2823.55 1679.05 2801.18 1679.05V1679.05C2778.82 1679.05 2760.68 1660.91 2760.68 1638.55V1138.05Z" fill="#5F2606"/>
<path d="M3062.67 1209.82L3027.26 1193.49L2808.85 1667.05C2804.34 1676.83 2808.61 1688.41 2818.39 1692.93V1692.93C2828.17 1697.44 2839.76 1693.16 2844.27 1683.38L3062.67 1209.82Z" fill="#66660D"/>
<path d="M3080.56 1124.47L3062.45 1210.27L3027.06 1193.95L3080.56 1124.47Z" fill="#66660D"/>
<path d="M2935.79 1169.19L2897.41 1162.21L2804.17 1675.31C2802.24 1685.9 2809.27 1696.06 2819.87 1697.98V1697.98C2830.47 1699.91 2840.62 1692.88 2842.54 1682.28L2935.79 1169.19Z" fill="#420A12"/>
<path d="M2931.8 1082.07L2935.68 1169.68L2897.34 1162.71L2931.8 1082.07Z" fill="#420A12"/>
<rect x="2643.68" y="1592.05" width="3816" height="1894" rx="132" fill="url(#paint2_linear_0_1)"/>
<rect x="2778.68" y="1701.05" width="3546" height="1523" rx="34" fill="#F9F9F9"/>
<rect width="323" height="286" transform="matrix(1 0 0 -1 4390.68 3772.05)" fill="url(#paint3_linear_0_1)"/>
<rect x="3874.68" y="3772.05" width="1354" height="95" fill="url(#paint4_linear_0_1)"/>
<path d="M5867.68 3224.05C5867.68 3081.63 5800.62 2945.04 5681.26 2844.33C5561.89 2743.62 5399.99 2687.05 5231.18 2687.05C5062.37 2687.05 4900.48 2743.62 4781.11 2844.33C4661.74 2945.04 4594.68 3081.63 4594.68 3224.05L5231.18 3224.05H5867.68Z" fill="#270867" fill-opacity="0.89"/>
<path d="M2809.68 1881.05C2809.68 1996.15 2863.05 2106.54 2958.03 2187.93C3053.02 2269.32 3181.85 2315.05 3316.18 2315.05C3450.52 2315.05 3579.35 2269.32 3674.33 2187.93C3769.32 2106.54 3822.68 1996.15 3822.68 1881.05L3316.18 1881.05H2809.68Z" fill="#D5D557"/>
<path d="M3981.93 2528.07C3979.72 2532.11 3976.79 2537.45 3973.14 2544.09C3969.63 2550.73 3965.53 2558.15 3960.84 2566.35C3956.28 2574.55 3951.27 2583.41 3945.8 2592.91C3940.46 2602.29 3934.86 2611.73 3929 2621.23C3923.27 2630.74 3917.35 2640.11 3911.23 2649.36C3905.24 2658.47 3899.38 2666.94 3893.65 2674.75C3907.71 2673.32 3921.26 2669.74 3934.28 2664.01C3947.3 2658.28 3959.47 2651.18 3970.8 2642.72C3982.26 2634.12 3992.68 2624.55 4002.05 2614.01C4011.56 2603.33 4019.63 2592.33 4026.27 2581C4033.04 2569.54 4038.25 2558.08 4041.89 2546.62C4045.67 2535.17 4047.56 2524.36 4047.56 2514.2C4047.56 2505.61 4046.45 2497.67 4044.24 2490.38C4042.15 2483.08 4038.9 2476.77 4034.47 2471.43C4030.18 2466.09 4024.64 2461.92 4017.87 2458.93C4011.1 2455.93 4003.16 2454.44 3994.04 2454.44C3985.58 2454.44 3977.05 2455.28 3968.46 2456.98C3959.99 2458.54 3951.86 2460.69 3944.04 2463.42C3936.23 2466.16 3929 2469.41 3922.36 2473.19C3915.85 2476.83 3910.25 2480.8 3905.57 2485.1C3900.36 2490.83 3895.74 2496.56 3891.7 2502.29C3887.79 2508.02 3883.89 2513.16 3879.98 2517.72C3876.2 2522.28 3872.1 2525.99 3867.68 2528.85C3863.25 2531.72 3858.04 2533.15 3852.05 2533.15C3840.85 2533.15 3835.25 2528.2 3835.25 2518.3C3835.25 2512.05 3837.27 2505.35 3841.31 2498.19C3845.35 2490.9 3850.94 2483.73 3858.11 2476.7C3865.4 2469.54 3873.99 2462.71 3883.89 2456.2C3893.91 2449.55 3904.92 2443.76 3916.89 2438.81C3928.87 2433.73 3941.63 2429.7 3955.18 2426.7C3968.72 2423.71 3982.65 2422.21 3996.97 2422.21C4013.64 2422.21 4028.16 2424.68 4040.53 2429.63C4052.9 2434.58 4063.12 2441.42 4071.19 2450.14C4079.39 2458.73 4085.45 2468.89 4089.36 2480.61C4093.39 2492.33 4095.41 2504.96 4095.41 2518.5C4095.41 2532.04 4093.07 2546.23 4088.38 2561.08C4083.82 2575.92 4077.05 2590.51 4068.07 2604.83C4059.21 2619.15 4048.21 2632.76 4035.06 2645.65C4022.04 2658.54 4007 2669.87 3989.94 2679.63C3973.01 2689.4 3954.2 2697.15 3933.5 2702.88C3912.92 2708.6 3890.66 2711.47 3866.7 2711.47C3861.49 2711.47 3857.39 2709.78 3854.39 2706.39C3851.4 2703.14 3849.9 2699.1 3849.9 2694.28C3849.9 2690.51 3850.55 2686.86 3851.86 2683.34C3853.16 2679.83 3854.85 2676.57 3856.93 2673.58L3937.21 2514.01C3940.98 2508.15 3944.69 2503.46 3948.34 2499.95C3952.12 2496.43 3955.57 2493.7 3958.69 2491.74C3961.95 2489.79 3964.81 2488.55 3967.29 2488.03C3969.76 2487.38 3971.65 2487.05 3972.95 2487.05C3978.81 2487.05 3982.98 2488.75 3985.45 2492.13C3987.92 2495.52 3989.16 2499.55 3989.16 2504.24C3989.16 2508.02 3988.51 2511.99 3987.21 2516.16C3985.9 2520.32 3984.15 2524.29 3981.93 2528.07ZM4174.9 2588.81C4174.25 2588.68 4173.67 2588.62 4173.14 2588.62C4172.62 2588.62 4172.04 2588.62 4171.39 2588.62C4166.44 2588.62 4161.82 2589.59 4157.52 2591.55C4153.22 2593.5 4149.25 2596.1 4145.61 2599.36C4142.09 2602.48 4138.9 2606.07 4136.04 2610.1C4133.3 2614.14 4130.83 2618.17 4128.61 2622.21C4126.4 2626.12 4124.51 2629.89 4122.95 2633.54C4121.52 2637.18 4120.41 2640.24 4119.63 2642.72C4124.19 2640.38 4128.87 2637.71 4133.69 2634.71C4138.64 2631.72 4143.26 2628.85 4147.56 2626.12C4151.86 2623.38 4155.57 2620.91 4158.69 2618.7C4161.95 2616.48 4164.23 2614.98 4165.53 2614.2C4171.39 2610.56 4175.42 2607.17 4177.64 2604.05C4179.85 2600.79 4180.96 2597.99 4180.96 2595.65C4180.96 2593.7 4180.31 2592.13 4179 2590.96C4177.83 2589.79 4176.46 2589.07 4174.9 2588.81ZM4181.93 2561.86C4192.74 2561.86 4200.81 2564.46 4206.15 2569.67C4211.49 2574.88 4214.16 2582.11 4214.16 2591.35C4214.16 2596.82 4212.73 2602.55 4209.86 2608.54C4207 2614.53 4202.05 2620.65 4195.02 2626.9C4187.99 2633.02 4178.55 2639.33 4166.7 2645.84C4154.98 2652.22 4140.27 2658.67 4122.56 2665.18C4123.21 2668.96 4125.23 2671.95 4128.61 2674.16C4132 2676.25 4136.49 2677.29 4142.09 2677.29C4148.08 2677.29 4154.46 2676.44 4161.23 2674.75C4168.13 2672.93 4174.9 2670.65 4181.54 2667.91C4188.31 2665.18 4194.89 2662.25 4201.27 2659.12C4207.65 2655.87 4213.38 2652.81 4218.46 2649.95C4223.67 2647.08 4227.96 2644.61 4231.35 2642.52C4234.86 2640.44 4237.21 2639.14 4238.38 2638.62C4239.55 2637.84 4240.59 2637.38 4241.5 2637.25C4242.55 2637.12 4243.46 2637.05 4244.24 2637.05C4245.8 2637.05 4247.1 2637.45 4248.14 2638.23C4249.19 2638.88 4250.03 2639.72 4250.68 2640.77C4251.46 2641.68 4251.99 2642.72 4252.25 2643.89C4252.51 2644.93 4252.64 2645.84 4252.64 2646.62C4252.64 2647.8 4252.51 2649.23 4252.25 2650.92C4251.99 2652.48 4251.01 2654.31 4249.32 2656.39C4248.67 2657.04 4246.45 2658.8 4242.68 2661.66C4239.03 2664.53 4234.28 2667.91 4228.42 2671.82C4222.56 2675.73 4215.72 2679.89 4207.91 2684.32C4200.23 2688.62 4192.02 2692.59 4183.3 2696.23C4174.71 2699.88 4165.72 2702.88 4156.35 2705.22C4146.97 2707.69 4137.73 2708.93 4128.61 2708.93C4120.8 2708.93 4113.83 2707.43 4107.71 2704.44C4101.73 2701.44 4096.58 2697.41 4092.29 2692.33C4088.12 2687.25 4084.93 2681.39 4082.71 2674.75C4080.5 2668.11 4079.39 2661.14 4079.39 2653.85C4079.39 2648.25 4080.5 2642.13 4082.71 2635.49C4084.93 2628.72 4088.12 2621.95 4092.29 2615.18C4096.45 2608.41 4101.53 2601.83 4107.52 2595.45C4113.64 2588.94 4120.48 2583.21 4128.03 2578.27C4135.58 2573.32 4143.85 2569.35 4152.83 2566.35C4161.95 2563.36 4171.65 2561.86 4181.93 2561.86ZM4287.79 2594.09C4295.74 2598.25 4302.83 2603.01 4309.08 2608.34C4315.33 2613.68 4320.61 2619.35 4324.9 2625.34C4329.33 2631.2 4332.65 2637.18 4334.86 2643.3C4337.21 2649.42 4338.38 2655.41 4338.38 2661.27C4338.38 2668.7 4336.23 2675.4 4331.93 2681.39C4327.77 2687.25 4322.23 2692.26 4315.33 2696.43C4308.56 2700.47 4300.75 2703.53 4291.89 2705.61C4283.17 2707.82 4274.32 2708.93 4265.33 2708.93C4258.56 2708.93 4251.99 2708.15 4245.61 2706.59C4239.23 2705.15 4233.37 2702.88 4228.03 2699.75C4222.82 2696.62 4218.33 2692.65 4214.55 2687.84C4210.77 2682.89 4208.11 2677.03 4206.54 2670.26C4206.28 2669.22 4206.15 2668.37 4206.15 2667.72C4206.15 2664.2 4207.39 2661.21 4209.86 2658.73C4212.34 2656.13 4215.07 2654.83 4218.07 2654.83C4219.5 2654.83 4221.06 2655.09 4222.75 2655.61C4224.58 2656.13 4225.94 2657.3 4226.86 2659.12C4228.55 2662.25 4230.89 2665.05 4233.89 2667.52C4237.01 2670 4240.46 2672.15 4244.24 2673.97C4248.01 2675.66 4251.99 2677.03 4256.15 2678.07C4260.45 2678.98 4264.62 2679.44 4268.65 2679.44C4272.82 2679.44 4276.79 2679.05 4280.57 2678.27C4284.47 2677.48 4287.86 2676.25 4290.72 2674.55C4293.72 2672.86 4296.06 2670.71 4297.75 2668.11C4299.45 2665.51 4300.29 2662.32 4300.29 2658.54C4300.29 2651.9 4298.8 2645.78 4295.8 2640.18C4292.81 2634.58 4288.9 2629.44 4284.08 2624.75C4279.39 2619.93 4273.99 2615.51 4267.87 2611.47C4261.88 2607.3 4255.89 2603.33 4249.9 2599.55C4249.25 2599.16 4248.27 2598.06 4246.97 2596.23C4245.67 2594.28 4245.02 2592.33 4245.02 2590.38C4245.02 2588.81 4245.41 2587.58 4246.19 2586.66C4248.27 2583.93 4250.68 2581.13 4253.42 2578.27C4256.15 2575.4 4259.08 2572.8 4262.21 2570.45C4265.33 2567.98 4268.72 2566.03 4272.36 2564.59C4276.01 2563.03 4279.79 2562.25 4283.69 2562.25C4286.56 2562.25 4289.23 2562.64 4291.7 2563.42C4294.17 2564.2 4296.26 2565.24 4297.95 2566.55C4299.64 2567.72 4300.94 2569.09 4301.86 2570.65C4302.9 2572.08 4303.42 2573.45 4303.42 2574.75C4303.42 2576.57 4302.96 2578.33 4302.05 2580.02C4301.14 2581.72 4299.9 2583.34 4298.34 2584.91C4296.91 2586.47 4295.21 2588.03 4293.26 2589.59C4291.44 2591.16 4289.62 2592.65 4287.79 2594.09ZM4398.34 2535.1C4398.34 2532.11 4398.86 2529.05 4399.9 2525.92C4401.07 2522.67 4402.77 2519.74 4404.98 2517.13C4407.19 2514.53 4409.93 2512.38 4413.18 2510.69C4416.57 2508.99 4420.54 2508.15 4425.1 2508.15C4432.65 2508.15 4437.92 2509.65 4440.92 2512.64C4443.91 2515.51 4445.41 2519.15 4445.41 2523.58C4445.41 2526.05 4444.89 2528.79 4443.85 2531.78C4442.94 2534.78 4441.5 2537.58 4439.55 2540.18C4437.6 2542.65 4435.06 2544.74 4431.93 2546.43C4428.81 2548.12 4425.1 2548.97 4420.8 2548.97C4412.73 2548.97 4407.06 2547.73 4403.81 2545.26C4400.55 2542.65 4398.73 2539.27 4398.34 2535.1ZM4376.86 2579.05C4379.07 2575.4 4381.61 2572.8 4384.47 2571.23C4387.34 2569.67 4390.27 2568.89 4393.26 2568.89C4398.21 2568.89 4402.44 2570.52 4405.96 2573.77C4409.6 2576.9 4411.43 2580.93 4411.43 2585.88C4411.3 2587.05 4411.1 2588.23 4410.84 2589.4C4410.71 2590.57 4410.32 2591.74 4409.67 2592.91C4407.85 2596.3 4406.35 2599.16 4405.18 2601.51C4404 2603.85 4402.9 2606.07 4401.86 2608.15C4400.94 2610.1 4400.03 2612.05 4399.12 2614.01C4398.21 2615.96 4397.1 2618.3 4395.8 2621.04C4394.24 2624.29 4392.48 2627.88 4390.53 2631.78C4388.57 2635.56 4386.69 2639.46 4384.86 2643.5C4383.17 2647.54 4381.67 2651.51 4380.37 2655.41C4379.2 2659.32 4378.61 2662.9 4378.61 2666.16C4378.61 2669.67 4379.46 2672.02 4381.15 2673.19C4382.98 2674.23 4385.51 2674.75 4388.77 2674.75C4392.42 2674.75 4396.19 2673.97 4400.1 2672.41C4404.13 2670.84 4408.17 2668.83 4412.21 2666.35C4416.24 2663.88 4420.21 2661.08 4424.12 2657.95C4428.03 2654.7 4431.67 2651.44 4435.06 2648.19C4438.57 2644.93 4441.76 2641.81 4444.63 2638.81C4447.62 2635.82 4450.1 2633.15 4452.05 2630.8C4454.65 2628.33 4457.26 2627.09 4459.86 2627.09C4462.21 2627.09 4464.1 2628.14 4465.53 2630.22C4467.09 2632.3 4467.87 2634.97 4467.87 2638.23C4467.87 2641.22 4467.09 2644.41 4465.53 2647.8C4464.1 2651.18 4461.69 2654.37 4458.3 2657.37C4451.66 2664.14 4444.89 2670.65 4437.99 2676.9C4431.09 2683.02 4423.99 2688.49 4416.7 2693.3C4409.54 2697.99 4402.31 2701.77 4395.02 2704.63C4387.73 2707.5 4380.37 2708.93 4372.95 2708.93C4362.4 2708.93 4354.07 2706.26 4347.95 2700.92C4341.96 2695.45 4338.96 2686.99 4338.96 2675.53C4338.96 2669.54 4339.81 2663.68 4341.5 2657.95C4343.2 2652.22 4345.21 2646.69 4347.56 2641.35C4349.9 2635.88 4352.38 2630.67 4354.98 2625.73C4357.58 2620.65 4359.8 2615.83 4361.62 2611.27C4362.27 2609.58 4363.38 2606.98 4364.94 2603.46C4366.63 2599.95 4368.39 2596.36 4370.21 2592.72C4372.3 2588.42 4374.51 2583.86 4376.86 2579.05ZM4535.64 2562.05C4541.37 2562.05 4546.39 2562.77 4550.68 2564.2C4554.98 2565.64 4558.63 2567.2 4561.62 2568.89C4565.01 2570.97 4568 2573.25 4570.61 2575.73C4572.43 2574.55 4574.38 2573.45 4576.46 2572.41C4578.29 2571.49 4580.31 2570.71 4582.52 2570.06C4584.73 2569.28 4586.95 2568.89 4589.16 2568.89C4594.89 2568.89 4599.32 2570.06 4602.44 2572.41C4605.57 2574.75 4607.13 2577.55 4607.13 2580.8C4607.13 2582.5 4606.67 2584.19 4605.76 2585.88L4560.06 2672.41L4563.77 2669.09C4579.13 2660.1 4591.76 2653.07 4601.66 2647.99C4611.56 2642.78 4619.43 2638.94 4625.29 2636.47C4631.15 2633.99 4635.32 2632.5 4637.79 2631.98C4640.4 2631.33 4642.02 2631 4642.68 2631C4645.67 2631 4647.95 2632.17 4649.51 2634.52C4651.2 2636.73 4652.05 2639.53 4652.05 2642.91C4652.05 2646.69 4650.94 2650.53 4648.73 2654.44C4646.65 2658.34 4643.39 2661.14 4638.96 2662.84C4633.11 2665.83 4626.27 2669.09 4618.46 2672.6C4610.64 2675.99 4602.51 2679.76 4594.04 2683.93C4585.58 2688.1 4577.05 2692.78 4568.46 2697.99C4559.99 2703.07 4552.05 2708.73 4544.63 2714.98L4506.74 2783.54C4503.61 2790.96 4500.75 2797.02 4498.14 2801.7C4495.67 2806.39 4493.2 2810.1 4490.72 2812.84C4488.25 2815.57 4485.71 2817.46 4483.11 2818.5C4480.5 2819.54 4477.51 2820.06 4474.12 2820.06C4469.04 2820.06 4465.01 2818.3 4462.01 2814.79C4459.15 2811.27 4457.71 2807.04 4457.71 2802.09C4457.71 2796.89 4458.95 2790.83 4461.43 2783.93C4463.9 2777.03 4467.35 2769.54 4471.78 2761.47C4476.33 2753.53 4481.8 2745.13 4488.18 2736.27C4494.56 2727.55 4501.66 2718.63 4509.47 2709.52L4533.69 2678.66C4528.74 2683.21 4523.86 2687.12 4519.04 2690.38C4514.23 2693.63 4509.6 2696.3 4505.18 2698.38C4500.75 2700.34 4496.58 2701.77 4492.68 2702.68C4488.9 2703.59 4485.58 2704.05 4482.71 2704.05C4477.51 2704.05 4472.69 2702.88 4468.26 2700.53C4463.83 2698.06 4459.99 2694.67 4456.74 2690.38C4453.61 2686.08 4451.14 2681 4449.32 2675.14C4447.49 2669.28 4446.58 2662.9 4446.58 2656C4446.58 2641.68 4449.32 2628.72 4454.79 2617.13C4460.38 2605.54 4467.48 2595.71 4476.07 2587.64C4484.8 2579.44 4494.37 2573.12 4504.79 2568.7C4515.33 2564.27 4525.62 2562.05 4535.64 2562.05ZM4528.22 2596.43C4522.1 2596.43 4516.18 2597.99 4510.45 2601.12C4504.72 2604.11 4499.64 2608.15 4495.21 2613.23C4490.79 2618.17 4487.27 2623.9 4484.67 2630.41C4482.06 2636.92 4480.76 2643.63 4480.76 2650.53C4480.76 2652.61 4480.89 2654.89 4481.15 2657.37C4481.54 2659.71 4482.26 2661.92 4483.3 2664.01C4484.47 2666.09 4486.1 2667.85 4488.18 2669.28C4490.4 2670.58 4493.39 2671.23 4497.17 2671.23C4499.9 2671.23 4503.09 2670.06 4506.74 2667.72C4510.51 2665.24 4514.36 2662.18 4518.26 2658.54C4522.3 2654.76 4526.2 2650.66 4529.98 2646.23C4533.76 2641.68 4537.14 2637.25 4540.14 2632.95C4543.26 2628.66 4545.74 2624.82 4547.56 2621.43C4549.38 2617.91 4550.29 2615.31 4550.29 2613.62C4550.29 2610.75 4549.51 2608.28 4547.95 2606.2C4546.39 2603.98 4544.43 2602.16 4542.09 2600.73C4539.88 2599.29 4537.47 2598.25 4534.86 2597.6C4532.39 2596.82 4530.18 2596.43 4528.22 2596.43ZM4660.64 2585.49C4663.25 2579.89 4666.5 2575.73 4670.41 2572.99C4674.32 2570.26 4678.16 2568.89 4681.93 2568.89C4685.06 2568.89 4687.86 2570.06 4690.33 2572.41C4692.81 2574.62 4694.04 2577.94 4694.04 2582.37C4694.04 2584.06 4693.85 2585.88 4693.46 2587.84C4693.07 2589.79 4692.35 2591.87 4691.31 2594.09C4694.17 2590.44 4698.27 2586.73 4703.61 2582.95C4708.95 2579.05 4714.81 2575.6 4721.19 2572.6C4727.7 2569.48 4734.34 2566.94 4741.11 2564.98C4748.01 2563.03 4754.52 2562.05 4760.64 2562.05C4767.55 2562.05 4773.27 2563.75 4777.83 2567.13C4782.52 2570.39 4784.86 2575.99 4784.86 2583.93C4784.86 2588.62 4784.15 2593.5 4782.71 2598.58C4781.28 2603.66 4779.39 2608.73 4777.05 2613.81C4774.84 2618.89 4772.3 2623.9 4769.43 2628.85C4766.7 2633.67 4763.96 2638.23 4761.23 2642.52C4758.5 2646.82 4755.96 2650.79 4753.61 2654.44C4751.4 2657.95 4749.64 2660.88 4748.34 2663.23C4746.65 2665.31 4745.8 2667.72 4745.8 2670.45C4745.8 2671.49 4746.13 2672.41 4746.78 2673.19C4747.43 2673.97 4748.47 2674.36 4749.9 2674.36C4750.81 2674.36 4751.86 2674.29 4753.03 2674.16C4754.2 2673.9 4755.63 2673.19 4757.32 2672.02C4764.36 2669.41 4771.52 2666.16 4778.81 2662.25C4786.23 2658.34 4793.33 2654.24 4800.1 2649.95C4806.87 2645.52 4813.05 2641.16 4818.65 2636.86C4824.38 2632.43 4829.13 2628.46 4832.91 2624.95C4833.95 2624.03 4834.99 2623.38 4836.04 2622.99C4837.08 2622.6 4838.05 2622.41 4838.96 2622.41C4841.18 2622.41 4842.87 2623.25 4844.04 2624.95C4845.35 2626.64 4846 2628.79 4846 2631.39C4846 2635.43 4844.69 2639.92 4842.09 2644.87C4839.62 2649.82 4835.64 2654.44 4830.18 2658.73C4822.75 2664.07 4815.92 2668.96 4809.67 2673.38C4803.55 2677.81 4797.23 2681.98 4790.72 2685.88C4784.34 2689.66 4777.44 2693.24 4770.02 2696.62C4762.73 2699.88 4754.13 2702.94 4744.24 2705.8C4740.85 2706.85 4737.73 2707.63 4734.86 2708.15C4732.13 2708.67 4729.59 2708.93 4727.25 2708.93C4720.35 2708.93 4715.27 2707.04 4712.01 2703.27C4708.89 2699.36 4707.32 2693.96 4707.32 2687.05C4707.32 2686.14 4707.32 2685.3 4707.32 2684.52C4707.45 2683.6 4707.58 2682.63 4707.71 2681.59C4707.98 2677.55 4709.02 2673.12 4710.84 2668.3C4712.79 2663.49 4715.07 2658.54 4717.68 2653.46C4720.41 2648.38 4723.27 2643.37 4726.27 2638.42C4729.26 2633.34 4732 2628.59 4734.47 2624.16C4737.08 2619.61 4739.23 2615.57 4740.92 2612.05C4742.61 2608.54 4743.46 2605.67 4743.46 2603.46C4743.46 2601.51 4742.87 2599.88 4741.7 2598.58C4740.66 2597.15 4739.03 2596.43 4736.82 2596.43C4728.48 2596.43 4720.54 2598.9 4712.99 2603.85C4705.57 2608.8 4698.6 2614.92 4692.09 2622.21C4685.58 2629.37 4679.59 2636.99 4674.12 2645.06C4668.65 2653.14 4663.83 2660.36 4659.67 2666.74C4657.06 2671.04 4654.65 2675.66 4652.44 2680.61C4650.36 2685.43 4648.14 2689.98 4645.8 2694.28C4643.46 2698.45 4640.79 2701.9 4637.79 2704.63C4634.93 2707.5 4631.28 2708.93 4626.86 2708.93C4622.3 2708.93 4618.72 2707.5 4616.11 2704.63C4613.51 2701.77 4612.21 2698.25 4612.21 2694.09C4612.21 2691.87 4613.12 2688.29 4614.94 2683.34C4616.76 2678.4 4619.11 2672.67 4621.97 2666.16C4624.84 2659.65 4628.03 2652.68 4631.54 2645.26C4635.19 2637.71 4638.77 2630.28 4642.29 2622.99C4645.93 2615.57 4649.38 2608.6 4652.64 2602.09C4655.89 2595.58 4658.56 2590.05 4660.64 2585.49Z" fill="url(#paint5_linear_0_1)"/>
<path d="M4942.57 2741.25H4924.57V2390.45H4942.57V2741.25Z" fill="black"/>
<rect x="3668.68" y="2235.05" width="1409" height="711" stroke="#0085FF" stroke-width="16" stroke-linejoin="bevel" stroke-dasharray="47 47"/>
<path d="M2778.68 1735.05C2778.68 1716.27 2793.91 1701.05 2812.68 1701.05H3195.68V3224.05H2812.68C2793.91 3224.05 2778.68 3208.82 2778.68 3190.05V1735.05Z" fill="#D6D4EC"/>
<path d="M6324.68 1735.05C6324.68 1716.27 6309.46 1701.05 6290.68 1701.05H5907.68V3224.05H6290.68C6309.46 3224.05 6324.68 3208.82 6324.68 3190.05V1735.05Z" fill="#D6D4EC"/>
<g filter="url(#filter0_d_0_1)">
<path d="M5325.68 2004.05H5907.68V2954.05H5325.68V2004.05Z" fill="#F5F4FF"/>
</g>
<path d="M5389.18 2142.55H5844.18V2455.55H5389.18V2142.55Z" fill="url(#paint6_linear_0_1)" stroke="#484444"/>
<rect width="456" height="32" rx="10" transform="matrix(1 0 0 -1 5388.68 2515.05)" fill="url(#paint7_linear_0_1)"/>
<path d="M5388.68 2792.05H5448.68V2840.05H5388.68V2792.05Z" fill="#3C1B08"/>
<path d="M5468.68 2792.05H5528.68V2840.05H5468.68V2792.05Z" fill="#040428"/>
<path d="M5549.68 2792.05H5609.68V2840.05H5549.68V2792.05Z" fill="#393907"/>
<path d="M5630.68 2792.05H5690.68V2840.05H5630.68V2792.05Z" fill="#400707"/>
<path d="M5711.68 2792.05H5771.68V2840.05H5711.68V2792.05Z" fill="#402704"/>
<path d="M5784.68 2792.05H5844.68V2840.05H5784.68V2792.05Z" fill="#434300"/>
<path d="M5388.68 2731.05H5448.68V2779.05H5388.68V2731.05Z" fill="#4D1E03"/>
<path d="M5468.68 2731.05H5528.68V2779.05H5468.68V2731.05Z" fill="#0B0B49"/>
<path d="M5549.68 2731.05H5609.68V2779.05H5549.68V2731.05Z" fill="#A7A712"/>
<path d="M5630.68 2731.05H5690.68V2779.05H5630.68V2731.05Z" fill="#9D1111"/>
<path d="M5711.68 2731.05H5771.68V2779.05H5711.68V2731.05Z" fill="#5E3B09"/>
<path d="M5784.68 2731.05H5844.68V2779.05H5784.68V2731.05Z" fill="#7A7A0A"/>
<path d="M5388.68 2670.05H5448.68V2718.05H5388.68V2670.05Z" fill="#9F4009"/>
<path d="M5468.68 2670.05H5528.68V2718.05H5468.68V2670.05Z" fill="#242443"/>
<path d="M5549.68 2670.05H5609.68V2718.05H5549.68V2670.05Z" fill="#F2F200"/>
<path d="M5630.68 2670.05H5690.68V2718.05H5630.68V2670.05Z" fill="#FF0000"/>
<path d="M5711.68 2670.05H5771.68V2718.05H5711.68V2670.05Z" fill="#935D0F"/>
<path d="M5784.68 2670.05H5844.68V2718.05H5784.68V2670.05Z" fill="#B9B90C"/>
<path d="M2778.68 1778.05H6324.68V1911.05H2778.68V1778.05Z" fill="#27272C"/>
<path d="M2778.68 1778.05H6324.68V1734.05C6324.68 1715.82 6309.91 1701.05 6291.68 1701.05H2812.68C2793.91 1701.05 2778.68 1716.27 2778.68 1735.05V1778.05Z" fill="#101011"/>
<ellipse cx="2826.57" cy="1739.55" rx="16.8889" ry="18.5" fill="#FF0000"/>
<ellipse cx="2920.8" cy="1739.55" rx="16.8889" ry="18.5" fill="#255425"/>
<ellipse cx="2873.68" cy="1739.55" rx="17.7778" ry="18.5" fill="#B9B90C"/>
<path d="M1750.68 2544.05L1841.03 2680.18C1851.35 2695.72 1873.94 2696.37 1885.13 2681.45L1963.59 2576.84C1975.23 2561.32 1998.94 2562.77 2008.6 2579.59L2063.88 2675.82C2073.64 2692.81 2097.68 2694.07 2109.17 2678.2L2184.91 2573.46C2195.51 2558.8 2217.25 2558.51 2228.24 2572.88L2314.4 2685.52C2324.84 2699.17 2345.21 2699.72 2356.37 2686.66L2456.5 2569.44C2467.66 2556.37 2488.03 2556.92 2498.47 2570.57L2585.07 2683.79C2595.93 2697.98 2617.33 2697.9 2628.08 2683.63L2712.19 2571.93C2722.82 2557.82 2743.91 2557.54 2754.9 2571.37L2866.68 2712.05" stroke="url(#paint8_linear_0_1)" stroke-width="40"/>
<path d="M1952.68 2299.05L2043.03 2435.18C2053.35 2450.72 2075.94 2451.37 2087.13 2436.45L2165.59 2331.84C2177.23 2316.32 2200.94 2317.77 2210.6 2334.59L2265.88 2430.82C2275.64 2447.81 2299.68 2449.07 2311.17 2433.2L2386.91 2328.46C2397.51 2313.8 2419.25 2313.51 2430.24 2327.88L2516.4 2440.52C2526.84 2454.17 2547.21 2454.72 2558.37 2441.66L2658.5 2324.44C2669.66 2311.37 2690.03 2311.92 2700.47 2325.57L2787.07 2438.79C2797.93 2452.98 2819.33 2452.9 2830.08 2438.63L2914.19 2326.93C2924.82 2312.82 2945.91 2312.54 2956.9 2326.37L3068.68 2467.05" stroke="#A76E00" stroke-width="40"/>
<path d="M3988.22 2839.8L4094.1 2857.76L4025.61 2940.47L3988.22 2839.8Z" fill="black"/>
<rect x="4051.57" y="2909.13" width="27" height="87" transform="rotate(-50.3761 4051.57 2909.13)" fill="black"/>
<path d="M2711.22 1642.18C2718.52 1649.17 2725.34 1655.99 2731.66 1662.57C2724.82 1655.7 2718 1648.9 2711.22 1642.18C2564.59 1501.46 2228.22 1286.93 1899.45 1418.67C1554.34 1556.96 1510.57 1373.95 1531.83 1265.16C1585.71 1052.79 1897 834.344 2711.22 1642.18Z" fill="url(#paint9_linear_0_1)"/>
<path d="M2655.5 1586.32C2662.38 1593.72 2669.12 1600.68 2675.66 1607.17C2668.87 1600.18 2662.15 1593.23 2655.5 1586.32C2517.21 1437.51 2323.93 1110.54 2525.87 836.366C2737.85 548.559 2535.15 485.39 2407.3 489.781C2155.8 509.353 1857.32 756.491 2655.5 1586.32Z" fill="url(#paint10_linear_0_1)"/>
<path d="M7574.05 2814.61C7748.6 2741.21 7676.78 2557.73 7831.7 2565.66L7874.33 2611.01C7794.97 2842.16 7641.08 2843.06 7574.05 2814.61Z" fill="url(#paint11_linear_0_1)"/>
<path d="M8345.78 2802.71C8165.86 2728.25 8245.32 2544.47 8083.78 2551.7L8038.23 2597.02C8115 2829.34 8275.25 2830.95 8345.78 2802.71Z" fill="url(#paint12_linear_0_1)"/>
<path d="M8412.68 2900.61C8244.31 2797.55 8346.74 2628.7 8185.98 2609.47L8135.04 2646.87C8180.9 2889.25 8339.24 2917.02 8412.68 2900.61Z" fill="url(#paint13_linear_0_1)"/>
<path d="M8496 2983.13C8317.86 2871.98 8290.12 2649.38 8166.58 2642.49L8153 2694.82C8327.5 2993.72 8454.37 3011.57 8496 2983.13Z" fill="url(#paint14_linear_0_1)"/>
<path d="M8495.89 3115.75C8254.04 3003.84 8360.64 2757.63 8143.57 2758.25L8082.41 2817.47C8185.8 3138.86 8401.14 3150.23 8495.89 3115.75Z" fill="url(#paint15_linear_0_1)"/>
<path d="M8315.11 3263.43C8141.42 3075.17 8294.66 2877.58 8112.55 2804.55L8045.92 2840.03C8049.19 3180.2 8226.74 3264.03 8315.11 3263.43Z" fill="url(#paint16_linear_0_1)"/>
<path d="M8117.46 3285.97C8034.51 3101.19 8152.96 2940.43 8050.51 2857.42L8005.28 2882.42C7964.94 3185.59 8063.26 3277.77 8117.46 3285.97Z" fill="url(#paint17_linear_0_1)"/>
<path d="M7482.76 2868.97C7657.31 2795.57 7585.49 2612.09 7740.41 2620.01L7783.04 2665.37C7703.68 2896.52 7549.79 2897.42 7482.76 2868.97Z" fill="url(#paint18_linear_0_1)"/>
<path d="M7439.42 2978.47C7639 2887.6 7639.83 2647.1 7788.59 2661.48L7812.77 2721.58C7645.27 3020.1 7494.08 3017.23 7439.42 2978.47Z" fill="url(#paint19_linear_0_1)"/>
<path d="M7397 3150.95C7644.43 3045.03 7528.3 2793.53 7752.78 2800.43L7817.45 2861.95C7718.22 3183.23 7495.81 3188.48 7397 3150.95Z" fill="url(#paint20_linear_0_1)"/>
<path d="M7592.25 3273.56C7758.52 3085.29 7611.83 2887.71 7786.16 2814.68L7849.95 2850.16C7846.82 3190.33 7676.85 3274.16 7592.25 3273.56Z" fill="url(#paint21_linear_0_1)"/>
<path d="M7801.59 3281.31C7880.96 3096.53 7767.62 2935.77 7865.65 2852.76L7908.93 2877.76C7947.52 3180.93 7853.45 3273.11 7801.59 3281.31Z" fill="url(#paint22_linear_0_1)"/>
<path d="M7930.84 3747.25C7864.14 3397.18 8021.47 3162.44 7930.84 2850.52" stroke="#301607" stroke-width="54"/>
<rect x="7649.68" y="3643.63" width="525.453" height="66.2224" fill="#1E1E23"/>
<rect width="480.947" height="419.149" transform="matrix(1 0 0 -1 7671.93 4129)" fill="#2F2E41"/>
<path d="M8017.63 3166.45C7972.11 3054.47 8039.9 2955.6 7982.73 2905.79L7957.09 2921.37C7932.36 3106.43 7987.15 3161.86 8017.63 3166.45Z" fill="url(#paint23_linear_0_1)"/>
<path d="M7869.3 3180.75C7931.22 3055.54 7847.58 2949.19 7922.43 2892.05L7954.77 2908.22C7980.45 3111.27 7908.49 3174.51 7869.3 3180.75Z" fill="url(#paint24_linear_0_1)"/>
<rect width="25.2985" height="48.0311" rx="12.6493" transform="matrix(0.920757 -0.390136 0.318576 0.947897 7857.14 2089.87)" fill="#FFB800"/>
<rect width="25.3839" height="47.8944" rx="12.692" transform="matrix(0.90351 0.428567 -0.352142 0.935947 8013.24 2101.74)" fill="#FFB800"/>
<ellipse cx="7846.55" cy="2852.82" rx="66.3834" ry="74.5421" fill="#3E091C"/>
<ellipse cx="8025.88" cy="2605.38" rx="66.3834" ry="63.6714" fill="#3E091C"/>
<ellipse cx="8119.92" cy="2644.2" rx="66.3834" ry="74.5421" fill="#3E091C"/>
<ellipse cx="8134.22" cy="2778.28" rx="66.3834" ry="74.5421" fill="#3E091C"/>
<ellipse cx="8067.83" cy="2852.82" rx="66.3834" ry="74.5421" fill="#3E091C"/>
<ellipse cx="7846.55" cy="2609.52" rx="66.3834" ry="59.5301" fill="#3E091C"/>
<ellipse cx="7750.21" cy="2661.29" rx="66.3834" ry="74.5421" fill="#3E091C"/>
<ellipse cx="7760.81" cy="2778.28" rx="66.3834" ry="74.5421" fill="#3E091C"/>
<ellipse cx="7950.05" cy="2717.71" rx="169.877" ry="105.601" fill="#3E091C"/>
<path d="M8071.26 2637.32L8004.92 2641.98C8004.67 2605.68 8031.04 2576.73 8070.23 2573.97L8136.57 2569.31C8136.82 2605.62 8110.46 2634.57 8071.26 2637.32Z" stroke="#F39306" stroke-width="37"/>
<path d="M7929.19 2637.27C7933.67 2756.48 7848.17 2863.86 7729.79 2885.12C7725.31 2765.9 7810.81 2658.52 7929.19 2637.27Z" stroke="#F39306" stroke-width="37"/>
<path d="M7968.61 2685.56L7965.52 2634.46C8071.98 2635.72 8160.41 2718.4 8166.97 2826.83L8170.06 2877.93C8063.61 2876.67 7975.18 2793.99 7968.61 2685.56Z" stroke="#F39306" stroke-width="37"/>
<path d="M7734.25 2595.77L7833.94 2592.12C7875.76 2590.58 7914.38 2618.53 7927.78 2657.21L7828.09 2660.87C7786.27 2662.4 7747.65 2634.46 7734.25 2595.77Z" stroke="#F39306" stroke-width="37"/>
<path d="M7943.17 2527.21V2527.21C8023.81 2562.13 8031.27 2630.68 7958.3 2679.65V2679.65V2679.65C7877.66 2644.73 7870.21 2576.19 7943.17 2527.21V2527.21Z" fill="url(#paint25_linear_0_1)"/>
<path d="M7945.88 2616.25V2616.25C8043.34 2704.16 8060.45 2861.96 7984.09 2968.71L7956.64 3007.08V3007.08C7859.18 2919.17 7842.07 2761.37 7918.43 2654.62L7945.88 2616.25Z" fill="url(#paint26_linear_0_1)"/>
<path d="M8255.49 2706.6V2706.6C8145.74 2774.85 8010.43 2736.2 7953.27 2620.29L7951.2 2616.1V2616.1C8060.96 2547.86 8196.27 2586.5 8253.43 2702.41L8255.49 2706.6Z" fill="url(#paint27_linear_0_1)"/>
<path d="M7951.21 2616.41L7941.22 2644.13C7899.68 2759.41 7775.56 2811.78 7664 2761.09V2761.09L7673.99 2733.37C7715.53 2618.08 7839.65 2565.72 7951.21 2616.41V2616.41Z" fill="url(#paint28_linear_0_1)"/>
<ellipse cx="7952.58" cy="2619.36" rx="22.5888" ry="16.0473" fill="#FFFF00"/>
<path d="M7969.18 2625.31C7991.08 2556.39 7953.04 2361.96 8010.21 2148.55" stroke="#FFE70E" stroke-width="9"/>
<path d="M7941.06 2626.35C7911.04 2554.43 7963.18 2351.55 7884.82 2128.88" stroke="#FFE70E" stroke-width="9"/>
<g filter="url(#filter1_d_0_1)">
<rect x="1309" y="3224" width="1600" height="959" rx="66" fill="#3E3E42"/>
</g>
<rect x="1369" y="3277" width="1481" height="852" rx="30" fill="url(#paint29_linear_0_1)"/>
<ellipse cx="2282.49" cy="3673.33" rx="789.708" ry="348.536" transform="rotate(-13.589 2282.49 3673.33)" fill="url(#paint30_radial_0_1)" fill-opacity="0.66"/>
<ellipse cx="1696.97" cy="3673.2" rx="415.371" ry="250.5" transform="rotate(21.2858 1696.97 3673.2)" fill="url(#paint31_radial_0_1)" fill-opacity="0.58"/>
<path d="M1436 3845.85C1395.67 3839.99 1373.86 3865.89 1368 3879.58V3989.27C1489.9 3995.1 1560.67 3983.78 1580.82 3977.39C1619.86 3991.71 1697.69 4007.01 1696.66 3953.63C1695.64 3900.26 1633.29 3901.57 1602.25 3908.91C1613.57 3897.03 1625.14 3869.25 1580.82 3853.18C1536.5 3837.11 1502.74 3864.08 1491.39 3879.58C1489.73 3870.78 1476.32 3851.72 1436 3845.85Z" fill="url(#paint32_linear_0_1)" fill-opacity="0.31"/>
<path d="M1417.25 3756.85C1388.04 3750.99 1372.25 3776.89 1368 3790.58V3900.27C1456.28 3906.1 1507.54 3894.78 1522.13 3888.39C1550.41 3902.71 1606.77 3918.01 1606.03 3864.63C1605.29 3811.26 1560.14 3812.57 1537.65 3819.91C1545.85 3808.03 1554.23 3780.25 1522.13 3764.18C1490.04 3748.11 1465.58 3775.08 1457.37 3790.58C1456.16 3781.78 1446.45 3762.72 1417.25 3756.85Z" fill="url(#paint33_linear_0_1)" fill-opacity="0.17"/>
<path d="M2510.45 3893.73C2481.12 3888.71 2465.26 3910.89 2461 3922.61V4016.52C2549.64 4021.51 2601.1 4011.82 2615.75 4006.35C2644.14 4018.61 2700.74 4031.71 2699.99 3986.01C2699.25 3940.31 2653.91 3941.44 2631.34 3947.71C2639.57 3937.54 2647.98 3913.77 2615.75 3900C2583.53 3886.24 2558.98 3909.34 2550.73 3922.61C2549.52 3915.07 2539.77 3898.75 2510.45 3893.73Z" fill="url(#paint34_linear_0_1)" fill-opacity="0.28"/>
<path d="M1978.66 3876.86C2006.14 3870.92 2021 3897.18 2025 3911.06V4022.24C1941.92 4028.15 1893.69 4016.68 1879.96 4010.2C1853.35 4024.72 1800.31 4040.23 1801.01 3986.12C1801.7 3932.01 1844.2 3933.35 1865.35 3940.78C1857.64 3928.74 1849.76 3900.59 1879.96 3884.29C1910.16 3868 1933.17 3895.35 1940.9 3911.06C1942.04 3902.13 1951.18 3882.81 1978.66 3876.86Z" fill="url(#paint35_linear_0_1)" fill-opacity="0.28"/>
<path d="M1804 3877.29C1799.18 3863.32 1781.27 3836.88 1748.14 3842.87C1715.02 3848.85 1704 3868.31 1702.63 3877.29C1693.32 3861.48 1665.58 3833.95 1629.17 3850.35C1595.65 3865.45 1597.18 3893.05 1604.89 3906.78C1602.42 3907.58 1602.71 3908.74 1607 3910C1606.26 3909.04 1605.56 3907.96 1604.89 3906.78C1617.14 3902.83 1697.2 3907.68 1696.5 3953C1696.15 3975.56 1679.26 3988.46 1661.88 3994.79C1646.6 3994.43 1636.18 3993.24 1630.5 3991C1611.71 3999.56 1637.29 4003.75 1661.88 3994.79C1691.14 3995.49 1738.22 3993.14 1804 3989.23V3877.29Z" fill="url(#paint36_linear_0_1)" fill-opacity="0.2"/>
<path d="M1852.04 3842.87C1823.69 3836.88 1808.36 3863.32 1804.24 3877.29V3989.23C1889.94 3995.18 1939.69 3983.63 1953.86 3977.11C1981.31 3991.73 2036.02 4007.34 2035.3 3952.87C2034.58 3898.39 1990.75 3899.74 1968.92 3907.22C1976.88 3895.1 1985.01 3866.75 1953.86 3850.35C1922.7 3833.95 1898.96 3861.48 1890.99 3877.29C1889.82 3868.31 1880.39 3848.85 1852.04 3842.87Z" fill="url(#paint37_linear_0_1)" fill-opacity="0.17"/>
<path d="M2856 3877.29C2850.42 3863.32 2829.65 3836.88 2791.25 3842.87C2752.84 3848.85 2740.08 3868.31 2738.49 3877.29C2727.69 3861.48 2695.53 3833.95 2653.33 3850.35C2611.13 3866.75 2622.14 3895.1 2632.92 3907.22C2603.36 3899.74 2633.9 3896.03 2632.92 3950.5C2631.99 4002.61 2796.58 4003.84 2843.39 3991.05C2850.16 3991.35 2854.18 3990.99 2849 3989.23C2847.39 3989.87 2845.51 3990.47 2843.39 3991.05C2825.08 3990.25 2786.62 3984.68 2856 3989.23V3877.29Z" fill="url(#paint38_linear_0_1)" fill-opacity="0.23"/>
<path d="M2418.59 3893.76C2443.74 3888.5 2457.34 3911.75 2461 3924.03V4022.45C2384.97 4027.67 2340.83 4017.52 2328.26 4011.79C2303.91 4024.64 2255.37 4038.37 2256.01 3990.47C2256.64 3942.58 2295.53 3943.76 2314.9 3950.34C2307.83 3939.68 2300.62 3914.76 2328.26 3900.34C2355.9 3885.92 2376.96 3910.12 2384.04 3924.03C2385.07 3916.13 2393.44 3899.03 2418.59 3893.76Z" fill="url(#paint39_linear_0_1)" fill-opacity="0.28"/>
<path d="M2791.3 3758.02C2829.67 3750.96 2850.42 3782.19 2856 3798.69V3930.91C2740.01 3937.94 2672.67 3924.29 2653.5 3916.59C2616.35 3933.86 2542.3 3952.3 2543.27 3887.96C2544.24 3823.61 2603.57 3825.2 2633.11 3834.04C2622.34 3819.72 2611.33 3786.24 2653.5 3766.86C2695.67 3747.49 2727.8 3780.01 2738.59 3798.69C2740.17 3788.08 2752.93 3765.09 2791.3 3758.02Z" fill="url(#paint40_linear_0_1)" fill-opacity="0.23"/>
<path d="M2072.79 3876.86C2044.45 3870.92 2029.12 3897.18 2025 3911.06V4022.24C2110.67 4028.15 2160.41 4016.68 2174.57 4010.2C2202.01 4024.72 2256.71 4040.23 2255.99 3986.12C2255.27 3932.01 2211.45 3933.35 2189.64 3940.78C2197.59 3928.74 2205.72 3900.59 2174.57 3884.29C2143.43 3868 2119.7 3895.35 2111.72 3911.06C2110.55 3902.13 2101.13 3882.81 2072.79 3876.86Z" fill="url(#paint41_linear_0_1)" fill-opacity="0.28"/>
<path d="M2365.76 3854.73C2333.99 3849.71 2316.81 3871.89 2312.19 3883.61V3977.52C2408.23 3982.51 2463.99 3972.82 2479.87 3967.35C2510.63 3979.61 2571.94 3992.71 2571.14 3947.01C2570.33 3901.31 2521.21 3902.44 2496.75 3908.71C2505.67 3898.54 2514.78 3874.77 2479.87 3861C2444.95 3847.24 2418.35 3870.34 2409.41 3883.61C2408.1 3876.07 2397.53 3859.75 2365.76 3854.73Z" fill="url(#paint42_linear_0_1)" fill-opacity="0.08"/>
<path d="M2248.93 3859.86C2286.45 3853.92 2306.73 3880.18 2312.19 3894.06V4005.24C2198.79 4011.15 2132.95 3999.68 2114.2 3993.2C2077.88 4007.72 2005.48 4023.23 2006.43 3969.12C2007.38 3915.01 2065.39 3916.35 2094.27 3923.78C2083.73 3911.74 2072.97 3883.59 2114.2 3867.29C2155.43 3851 2186.84 3878.35 2197.4 3894.06C2198.94 3885.13 2211.42 3865.81 2248.93 3859.86Z" fill="url(#paint43_linear_0_1)" fill-opacity="0.08"/>
<path d="M1727.34 3797.73C1695.57 3792.71 1678.39 3814.89 1673.77 3826.61V3920.52C1769.81 3925.51 1825.57 3915.82 1841.44 3910.35C1872.2 3922.61 1933.52 3935.71 1932.71 3890.01C1931.91 3844.31 1882.79 3845.44 1858.33 3851.71C1867.25 3841.54 1876.36 3817.77 1841.44 3804C1806.53 3790.24 1779.92 3813.34 1770.98 3826.61C1769.67 3819.07 1759.11 3802.75 1727.34 3797.73Z" fill="url(#paint44_linear_0_1)" fill-opacity="0.17"/>
<path d="M1610.51 3802.86C1648.02 3796.92 1668.31 3823.18 1673.77 3837.06V3948.24C1560.37 3954.15 1494.52 3942.68 1475.78 3936.2C1439.46 3950.72 1367.06 3966.23 1368.01 3912.12C1368.96 3858.01 1426.96 3859.35 1455.84 3866.78C1445.31 3854.74 1434.55 3826.59 1475.78 3810.29C1517.01 3794 1548.42 3821.35 1558.97 3837.06C1560.52 3828.13 1572.99 3808.81 1610.51 3802.86Z" fill="url(#paint45_linear_0_1)" fill-opacity="0.17"/>
<path d="M2660.75 3599.45L2678.38 3645.92L3279.3 3393.15C3291.95 3387.83 3298.26 3373.11 3293.39 3360.28V3360.28C3288.53 3347.45 3274.32 3341.36 3261.67 3346.68L2660.75 3599.45Z" fill="black"/>
<path d="M2637.91 3608.74L2655.54 3655.21L2626.58 3667.4C2613.92 3672.72 2599.72 3666.63 2594.85 3653.8V3653.8C2589.99 3640.97 2596.29 3626.25 2608.95 3620.93L2637.91 3608.74Z" fill="#6C6565"/>
<path d="M2660.76 3599.36L2678.39 3645.83L2656.54 3655.02C2656.03 3655.23 2655.46 3654.99 2655.26 3654.47L2637.99 3608.94L2660.76 3599.36Z" fill="#252525"/>
<rect x="1369" y="3277" width="1481" height="633" rx="316.5" fill="url(#paint46_radial_0_1)" fill-opacity="0.06"/>
<path d="M1703.36 3409.24C1703.34 3485.14 1818.55 3448.69 1803.23 3518.92" stroke="black" stroke-width="5"/>
<path d="M1946 3477.23C1906.61 3542.1 1826.53 3450.93 1803.23 3518.92" stroke="black" stroke-width="5"/>
<path d="M1243.44 3191C1243.39 3353.08 1485.35 3275.26 1453.17 3425.23" stroke="black" stroke-width="15"/>
<path d="M1753 3336.19C1670.28 3474.72 1502.1 3280.03 1453.17 3425.23" stroke="black" stroke-width="15"/>
<path d="M1992 3543.19C2010.74 3570.22 2051.93 3530.94 2062.61 3559.44" stroke="black" stroke-width="2"/>
<path d="M2114.5 3512C2113.37 3544.09 2055.96 3529.91 2062.61 3559.44" stroke="black" stroke-width="2"/>
<path d="M2189.04 3553C2184.84 3563.99 2202.39 3564.53 2196.45 3573.92" stroke="black" stroke-width="2"/>
<path d="M2218 3575.1C2209.1 3582.5 2203.34 3565.26 2196.45 3573.92" stroke="black" stroke-width="2"/>
<rect width="300" height="300" rx="150" transform="matrix(1 0 0 -1 5544.68 1221.05)" fill="url(#paint47_linear_0_1)" fill-opacity="0.44"/>
<g filter="url(#filter2_d_0_1)">
<rect x="5245.68" y="1180.05" width="1488" height="824" rx="42" fill="white"/>
</g>
<path d="M5749.18 1447.05L6185.23 2005.05H5313.14L5749.18 1447.05Z" fill="#8890B7"/>
<path d="M6293.68 1541.05L5928.22 2003.8H6659.15L6293.68 1541.05Z" fill="#8890B7"/>
<ellipse cx="6219.68" cy="1318.05" rx="104" ry="100" fill="#EBEB20"/>
<rect width="300" height="300" rx="150" transform="matrix(1 0 0 -1 5576 495)" fill="url(#paint48_linear_0_1)" fill-opacity="0.44"/>
<rect width="506" height="462" rx="231" transform="matrix(0.461452 -0.887165 -0.887165 -0.461452 1669.87 901.096)" fill="url(#paint49_linear_0_1)"/>
<rect width="300" height="300" rx="150" transform="matrix(1 0 0 -1 6014 870)" fill="url(#paint50_linear_0_1)" fill-opacity="0.44"/>
<rect x="6164.08" y="4121.79" width="217.606" height="332" rx="108.803" transform="rotate(-14.3171 6164.08 4121.79)" fill="url(#paint51_linear_0_1)"/>
<line x1="6267.38" y1="4097.22" x2="6296.96" y2="4187.5" stroke="black" stroke-width="5"/>
<path d="M3357.5 3965L3182 4536.5H6058L5869 3965H3357.5Z" fill="#2F2E41"/>
<rect x="3182" y="4536" width="2876" height="38" fill="#262530"/>
<path d="M3429 4061.5L3302 4477H5450.5L5364.5 4061.5H3429Z" fill="#202027"/>
<path d="M5478 4475.5L5465.5 4411.5H5519.5L5537 4475.5H5478Z" fill="#202027"/>
<path d="M5549.5 4475L5537 4411H5591L5608.5 4475H5549.5Z" fill="#202027"/>
<path d="M5529.5 4399L5517 4335H5571L5588.5 4399H5529.5Z" fill="#202027"/>
<path d="M5620.5 4475L5608 4411H5662L5679.5 4475H5620.5Z" fill="#202027"/>
<path d="M5642.59 4148L5630 4111H5684.38L5702 4148H5642.59Z" fill="#202027"/>
<path d="M5714.41 4148L5702 4111H5755.62L5773 4148H5714.41Z" fill="#202027"/>
<path d="M5785.41 4148L5773 4111H5826.62L5844 4148H5785.41Z" fill="#202027"/>
<path d="M5620.59 4098L5608 4061H5662.38L5680 4098H5620.59Z" fill="#202027"/>
<path d="M5692.41 4098L5680 4061H5733.62L5751 4098H5692.41Z" fill="#202027"/>
<path d="M5763.41 4098L5751 4061H5804.62L5822 4098H5763.41Z" fill="#202027"/>
<path d="M5737.5 4475L5644 4169H5853L5943.5 4475H5737.5Z" fill="#202027"/>
<path d="M5459.11 4296.11L5381.25 4054L5569.25 4058.9L5644.41 4300.94L5459.11 4296.11Z" fill="#202027"/>
<defs>
<filter id="filter0_d_0_1" x="5262.68" y="1998.05" width="658" height="1026" filterUnits="userSpaceOnUse" color-interpolation-filters="sRGB">
<feFlood flood-opacity="0" result="BackgroundImageFix"/>
<feColorMatrix in="SourceAlpha" type="matrix" values="0 0 0 0 0 0 0 0 0 0 0 0 0 0 0 0 0 0 127 0" result="hardAlpha"/>
<feOffset dx="-25" dy="32"/>
<feGaussianBlur stdDeviation="19"/>
<feComposite in2="hardAlpha" operator="out"/>
<feColorMatrix type="matrix" values="0 0 0 0 0 0 0 0 0 0 0 0 0 0 0 0 0 0 0.56 0"/>
<feBlend mode="normal" in2="BackgroundImageFix" result="effect1_dropShadow_0_1"/>
<feBlend mode="normal" in="SourceGraphic" in2="effect1_dropShadow_0_1" result="shape"/>
</filter>
<filter id="filter1_d_0_1" x="1309" y="3224" width="1629" height="982" filterUnits="userSpaceOnUse" color-interpolation-filters="sRGB">
<feFlood flood-opacity="0" result="BackgroundImageFix"/>
<feColorMatrix in="SourceAlpha" type="matrix" values="0 0 0 0 0 0 0 0 0 0 0 0 0 0 0 0 0 0 127 0" result="hardAlpha"/>
<feOffset dx="25" dy="19"/>
<feGaussianBlur stdDeviation="2"/>
<feComposite in2="hardAlpha" operator="out"/>
<feColorMatrix type="matrix" values="0 0 0 0 0 0 0 0 0 0 0 0 0 0 0 0 0 0 0.4 0"/>
<feBlend mode="normal" in2="BackgroundImageFix" result="effect1_dropShadow_0_1"/>
<feBlend mode="normal" in="SourceGraphic" in2="effect1_dropShadow_0_1" result="shape"/>
</filter>
<filter id="filter2_d_0_1" x="5195.68" y="1180.05" width="1538" height="865" filterUnits="userSpaceOnUse" color-interpolation-filters="sRGB">
<feFlood flood-opacity="0" result="BackgroundImageFix"/>
<feColorMatrix in="SourceAlpha" type="matrix" values="0 0 0 0 0 0 0 0 0 0 0 0 0 0 0 0 0 0 127 0" result="hardAlpha"/>
<feOffset dx="-37" dy="28"/>
<feGaussianBlur stdDeviation="6.5"/>
<feComposite in2="hardAlpha" operator="out"/>
<feColorMatrix type="matrix" values="0 0 0 0 0 0 0 0 0 0 0 0 0 0 0 0 0 0 0.5 0"/>
<feBlend mode="normal" in2="BackgroundImageFix" result="effect1_dropShadow_0_1"/>
<feBlend mode="normal" in="SourceGraphic" in2="effect1_dropShadow_0_1" result="shape"/>
</filter>
<radialGradient id="paint0_radial_0_1" cx="0" cy="0" r="1" gradientUnits="userSpaceOnUse" gradientTransform="translate(4007 2197.5) rotate(90) scale(2197.5 4007)">
<stop stop-color="#162C53" stop-opacity="0"/>
<stop offset="1" stop-color="#050E1E"/>
</radialGradient>
<linearGradient id="paint1_linear_0_1" x1="2794.55" y1="793.047" x2="2794.55" y2="1138.05" gradientUnits="userSpaceOnUse">
<stop stop-color="#9F4009"/>
<stop offset="0.604167" stop-color="#511E07"/>
<stop offset="0.942708" stop-color="#301001"/>
</linearGradient>
<linearGradient id="paint2_linear_0_1" x1="2691.62" y1="1592.05" x2="6942.95" y2="5761.83" gradientUnits="userSpaceOnUse">
<stop offset="0.296875" stop-color="#2F2E41"/>
<stop offset="1" stop-color="#100F17"/>
</linearGradient>
<linearGradient id="paint3_linear_0_1" x1="4.0578" y1="-3.439e-05" x2="546.206" y2="298.068" gradientUnits="userSpaceOnUse">
<stop offset="0.296875" stop-color="#2F2E41"/>
<stop offset="1" stop-color="#100F17"/>
</linearGradient>
<linearGradient id="paint4_linear_0_1" x1="3891.69" y1="3772.05" x2="3951.92" y2="4189.93" gradientUnits="userSpaceOnUse">
<stop offset="0.296875" stop-color="#2F2E41"/>
<stop offset="1" stop-color="#100F17"/>
</linearGradient>
<linearGradient id="paint5_linear_0_1" x1="3917.72" y1="2567.05" x2="4939.4" y2="2612.79" gradientUnits="userSpaceOnUse">
<stop stop-color="#925700"/>
<stop offset="1" stop-color="#9F4009"/>
</linearGradient>
<linearGradient id="paint6_linear_0_1" x1="5616.68" y1="2456.05" x2="5616.68" y2="2142.05" gradientUnits="userSpaceOnUse">
<stop offset="0.385417" stop-color="#511E07"/>
<stop offset="0.84375" stop-color="#A3887C"/>
<stop offset="1" stop-color="white"/>
</linearGradient>
<linearGradient id="paint7_linear_0_1" x1="3.17226e-06" y1="21" x2="456" y2="16.0002" gradientUnits="userSpaceOnUse">
<stop offset="0.0260417" stop-color="#FF0000"/>
<stop offset="0.129268" stop-color="#FFA500"/>
<stop offset="0.236435" stop-color="#FFFF00"/>
<stop offset="0.39561" stop-color="#008000"/>
<stop offset="0.529534" stop-color="#0C90AD"/>
<stop offset="0.649335" stop-color="#0000FF"/>
<stop offset="0.773843" stop-color="#800080"/>
<stop offset="0.869536" stop-color="#FF00C7"/>
<stop offset="1" stop-color="#FF0202"/>
</linearGradient>
<linearGradient id="paint8_linear_0_1" x1="2308.68" y1="2544.05" x2="2308.68" y2="2712.05" gradientUnits="userSpaceOnUse">
<stop stop-color="#8D5E00"/>
<stop offset="1" stop-color="#9F4009"/>
</linearGradient>
<linearGradient id="paint9_linear_0_1" x1="2171.99" y1="1109.55" x2="2116.67" y2="1592.06" gradientUnits="userSpaceOnUse">
<stop stop-color="#8B5F0D"/>
<stop offset="1" stop-color="#9F4009"/>
</linearGradient>
<linearGradient id="paint10_linear_0_1" x1="2129.61" y1="1037.06" x2="2690.59" y2="1052.15" gradientUnits="userSpaceOnUse">
<stop stop-color="#9F4009"/>
<stop offset="1" stop-color="#750F34"/>
</linearGradient>
<linearGradient id="paint11_linear_0_1" x1="7780.05" y1="2544.1" x2="7653.32" y2="2847.7" gradientUnits="userSpaceOnUse">
<stop offset="0.015625" stop-color="#511E07"/>
<stop offset="0.953125" stop-color="#925700"/>
</linearGradient>
<linearGradient id="paint12_linear_0_1" x1="8138.12" y1="2530.31" x2="8258.84" y2="2836.94" gradientUnits="userSpaceOnUse">
<stop offset="0.015625" stop-color="#511E07"/>
<stop offset="0.953125" stop-color="#925700"/>
</linearGradient>
<linearGradient id="paint13_linear_0_1" x1="8242.52" y1="2597.18" x2="8313.19" y2="2922.24" gradientUnits="userSpaceOnUse">
<stop offset="0.015625" stop-color="#511E07"/>
<stop offset="0.953125" stop-color="#925700"/>
</linearGradient>
<linearGradient id="paint14_linear_0_1" x1="8198.83" y1="2621.03" x2="8457.05" y2="3009.06" gradientUnits="userSpaceOnUse">
<stop offset="0.015625" stop-color="#511E07"/>
<stop offset="0.953125" stop-color="#925700"/>
</linearGradient>
<linearGradient id="paint15_linear_0_1" x1="8216.57" y1="2732.17" x2="8369.72" y2="3160.83" gradientUnits="userSpaceOnUse">
<stop offset="0.015625" stop-color="#511E07"/>
<stop offset="0.953125" stop-color="#925700"/>
</linearGradient>
<linearGradient id="paint16_linear_0_1" x1="8180.51" y1="2804.55" x2="8180.51" y2="3263.43" gradientUnits="userSpaceOnUse">
<stop offset="0.015625" stop-color="#511E07"/>
<stop offset="0.953125" stop-color="#925700"/>
</linearGradient>
<linearGradient id="paint17_linear_0_1" x1="8092.14" y1="2864.14" x2="8026.44" y2="3271.28" gradientUnits="userSpaceOnUse">
<stop offset="0.015625" stop-color="#511E07"/>
<stop offset="0.953125" stop-color="#925700"/>
</linearGradient>
<linearGradient id="paint18_linear_0_1" x1="7688.76" y1="2598.45" x2="7562.03" y2="2902.06" gradientUnits="userSpaceOnUse">
<stop offset="0.015625" stop-color="#511E07"/>
<stop offset="0.953125" stop-color="#925700"/>
</linearGradient>
<linearGradient id="paint19_linear_0_1" x1="7746.33" y1="2632.09" x2="7483.89" y2="3009.41" gradientUnits="userSpaceOnUse">
<stop offset="0.015625" stop-color="#511E07"/>
<stop offset="0.953125" stop-color="#925700"/>
</linearGradient>
<linearGradient id="paint20_linear_0_1" x1="7676.66" y1="2772.01" x2="7518.26" y2="3196.23" gradientUnits="userSpaceOnUse">
<stop offset="0.015625" stop-color="#511E07"/>
<stop offset="0.953125" stop-color="#925700"/>
</linearGradient>
<linearGradient id="paint21_linear_0_1" x1="7721.1" y1="2814.68" x2="7721.1" y2="3273.56" gradientUnits="userSpaceOnUse">
<stop offset="0.015625" stop-color="#511E07"/>
<stop offset="0.953125" stop-color="#925700"/>
</linearGradient>
<linearGradient id="paint22_linear_0_1" x1="7825.82" y1="2859.48" x2="7894.32" y2="3265.67" gradientUnits="userSpaceOnUse">
<stop offset="0.015625" stop-color="#511E07"/>
<stop offset="0.953125" stop-color="#925700"/>
</linearGradient>
<linearGradient id="paint23_linear_0_1" x1="8006.14" y1="2909.57" x2="7966.03" y2="3158.12" gradientUnits="userSpaceOnUse">
<stop offset="0.015625" stop-color="#511E07"/>
<stop offset="0.953125" stop-color="#925700"/>
</linearGradient>
<linearGradient id="paint24_linear_0_1" x1="7892.32" y1="2897.13" x2="7938.19" y2="3169.14" gradientUnits="userSpaceOnUse">
<stop offset="0.015625" stop-color="#511E07"/>
<stop offset="0.953125" stop-color="#925700"/>
</linearGradient>
<linearGradient id="paint25_linear_0_1" x1="7947.97" y1="2527.27" x2="7959.96" y2="2640.98" gradientUnits="userSpaceOnUse">
<stop stop-color="#750F34"/>
<stop offset="1" stop-color="#9F4009"/>
</linearGradient>
<linearGradient id="paint26_linear_0_1" x1="7951.2" y1="2634.63" x2="7951.2" y2="2986.37" gradientUnits="userSpaceOnUse">
<stop stop-color="#9F4009"/>
<stop offset="1" stop-color="#750F34"/>
</linearGradient>
<linearGradient id="paint27_linear_0_1" x1="8255.46" y1="2705.29" x2="7948.04" y2="2642.65" gradientUnits="userSpaceOnUse">
<stop stop-color="#750F34"/>
<stop offset="1" stop-color="#9F4009"/>
</linearGradient>
<linearGradient id="paint28_linear_0_1" x1="7929.99" y1="2624.79" x2="7663.51" y2="2736.1" gradientUnits="userSpaceOnUse">
<stop stop-color="#9F4009"/>
<stop offset="1" stop-color="#750F34"/>
</linearGradient>
<linearGradient id="paint29_linear_0_1" x1="1977" y1="3277" x2="1990" y2="4129" gradientUnits="userSpaceOnUse">
<stop stop-color="#0B3C69"/>
<stop offset="0.526042" stop-color="#062440"/>
<stop offset="0.98312" stop-color="#2E0D25"/>
</linearGradient>
<radialGradient id="paint30_radial_0_1" cx="0" cy="0" r="1" gradientUnits="userSpaceOnUse" gradientTransform="translate(2282.49 3673.33) rotate(90) scale(348.536 789.708)">
<stop stop-color="#FFA500" stop-opacity="0.41"/>
<stop offset="1" stop-color="#062440" stop-opacity="0"/>
</radialGradient>
<radialGradient id="paint31_radial_0_1" cx="0" cy="0" r="1" gradientUnits="userSpaceOnUse" gradientTransform="translate(1696.97 3673.2) rotate(90) scale(250.5 415.371)">
<stop offset="0.239583" stop-color="#B60000" stop-opacity="0.53"/>
<stop offset="1" stop-color="#062440" stop-opacity="0"/>
</radialGradient>
<linearGradient id="paint32_linear_0_1" x1="1532.34" y1="3845" x2="1532.34" y2="3991" gradientUnits="userSpaceOnUse">
<stop stop-color="#FFF9F9"/>
<stop offset="1" stop-color="#FFF9F9" stop-opacity="0"/>
</linearGradient>
<linearGradient id="paint33_linear_0_1" x1="1487.02" y1="3756" x2="1487.02" y2="3902" gradientUnits="userSpaceOnUse">
<stop stop-color="#FFF9F9"/>
<stop offset="1" stop-color="#FFF9F9" stop-opacity="0"/>
</linearGradient>
<linearGradient id="paint34_linear_0_1" x1="2580.5" y1="3893" x2="2580.5" y2="4018" gradientUnits="userSpaceOnUse">
<stop stop-color="#FFF9F9"/>
<stop offset="1" stop-color="#FFF9F9" stop-opacity="0"/>
</linearGradient>
<linearGradient id="paint35_linear_0_1" x1="1913" y1="3876" x2="1913" y2="4024" gradientUnits="userSpaceOnUse">
<stop stop-color="#FFF9F9"/>
<stop offset="1" stop-color="#FFF9F9" stop-opacity="0"/>
</linearGradient>
<linearGradient id="paint36_linear_0_1" x1="1669" y1="3842" x2="1669" y2="3991" gradientUnits="userSpaceOnUse">
<stop stop-color="#FFF9F9"/>
<stop offset="1" stop-color="#FFF9F9" stop-opacity="0"/>
</linearGradient>
<linearGradient id="paint37_linear_0_1" x1="1919.77" y1="3842" x2="1919.77" y2="3991" gradientUnits="userSpaceOnUse">
<stop stop-color="#FFF9F9"/>
<stop offset="1" stop-color="#FFF9F9" stop-opacity="0"/>
</linearGradient>
<linearGradient id="paint38_linear_0_1" x1="2699.5" y1="3842" x2="2699.5" y2="3991" gradientUnits="userSpaceOnUse">
<stop stop-color="#FFF9F9"/>
<stop offset="1" stop-color="#FFF9F9" stop-opacity="0"/>
</linearGradient>
<linearGradient id="paint39_linear_0_1" x1="2358.5" y1="3893" x2="2358.5" y2="4024" gradientUnits="userSpaceOnUse">
<stop stop-color="#FFF9F9"/>
<stop offset="1" stop-color="#FFF9F9" stop-opacity="0"/>
</linearGradient>
<linearGradient id="paint40_linear_0_1" x1="2699.63" y1="3757" x2="2699.63" y2="3933" gradientUnits="userSpaceOnUse">
<stop stop-color="#FFF9F9"/>
<stop offset="1" stop-color="#FFF9F9" stop-opacity="0"/>
</linearGradient>
<linearGradient id="paint41_linear_0_1" x1="2140.5" y1="3876" x2="2140.5" y2="4024" gradientUnits="userSpaceOnUse">
<stop stop-color="#FFF9F9"/>
<stop offset="1" stop-color="#FFF9F9" stop-opacity="0"/>
</linearGradient>
<linearGradient id="paint42_linear_0_1" x1="2441.67" y1="3854" x2="2441.67" y2="3979" gradientUnits="userSpaceOnUse">
<stop stop-color="#FFF9F9"/>
<stop offset="1" stop-color="#FFF9F9" stop-opacity="0"/>
</linearGradient>
<linearGradient id="paint43_linear_0_1" x1="2159.31" y1="3859" x2="2159.31" y2="4007" gradientUnits="userSpaceOnUse">
<stop stop-color="#FFF9F9"/>
<stop offset="1" stop-color="#FFF9F9" stop-opacity="0"/>
</linearGradient>
<linearGradient id="paint44_linear_0_1" x1="1803.24" y1="3797" x2="1803.24" y2="3922" gradientUnits="userSpaceOnUse">
<stop stop-color="#FFF9F9"/>
<stop offset="1" stop-color="#FFF9F9" stop-opacity="0"/>
</linearGradient>
<linearGradient id="paint45_linear_0_1" x1="1520.88" y1="3802" x2="1520.88" y2="3950" gradientUnits="userSpaceOnUse">
<stop stop-color="#FFF9F9"/>
<stop offset="1" stop-color="#FFF9F9" stop-opacity="0"/>
</linearGradient>
<radialGradient id="paint46_radial_0_1" cx="0" cy="0" r="1" gradientUnits="userSpaceOnUse" gradientTransform="translate(2109.5 3593.5) rotate(90) scale(316.5 740.5)">
<stop offset="0.723958" stop-color="white"/>
<stop offset="1" stop-color="white" stop-opacity="0"/>
</radialGradient>
<linearGradient id="paint47_linear_0_1" x1="216.389" y1="284.617" x2="36.8151" y2="35.499" gradientUnits="userSpaceOnUse">
<stop stop-color="#9F4009"/>
<stop offset="1" stop-color="#750F34"/>
</linearGradient>
<linearGradient id="paint48_linear_0_1" x1="216.389" y1="284.617" x2="36.8151" y2="35.499" gradientUnits="userSpaceOnUse">
<stop stop-color="#9F4009"/>
<stop offset="1" stop-color="#750F34"/>
</linearGradient>
<linearGradient id="paint49_linear_0_1" x1="364.976" y1="438.31" x2="97.2509" y2="31.5302" gradientUnits="userSpaceOnUse">
<stop stop-color="#9F4009"/>
<stop offset="1" stop-color="#750F34"/>
</linearGradient>
<linearGradient id="paint50_linear_0_1" x1="216.389" y1="284.617" x2="36.8151" y2="35.499" gradientUnits="userSpaceOnUse">
<stop stop-color="#9F4009"/>
<stop offset="1" stop-color="#750F34"/>
</linearGradient>
<linearGradient id="paint51_linear_0_1" x1="6272.89" y1="4121.79" x2="6272.89" y2="4453.79" gradientUnits="userSpaceOnUse">
<stop offset="0.427083" stop-color="#2F2E41"/>
<stop offset="1" stop-color="#17161E"/>
</linearGradient>
</defs>
</svg>
