<svg width="100%" height="100%" viewBox="0 0 2010 2050" fill="none" xmlns="http://www.w3.org/2000/svg">
                    <g clip-path="url(#clip0_522_250)">
                    <path d="M1004.86 2001C1541.58 2001 1976.68 1574.66 1976.68 1048.75C1976.68 522.844 1541.58 96.5098 1004.86 96.5098C468.138 96.5098 33.041 522.844 33.041 1048.75C33.041 1574.66 468.138 2001 1004.86 2001Z" fill="url(#paint0_radial_522_250)"/>
                    <path d="M717.903 822.39C717.903 900.236 653.734 963.34 574.577 963.34C495.42 963.34 431.252 900.236 431.252 822.39C431.252 744.545 495.42 681.439 574.577 681.439C653.734 681.439 717.903 744.545 717.903 822.39Z" fill="url(#paint1_radial_522_250)"/>
                    <path d="M704.819 821.593C704.819 894.721 646.298 954.001 574.108 954.001C501.918 954.001 443.398 894.721 443.398 821.593C443.398 748.466 501.918 689.186 574.108 689.186C646.298 689.186 704.819 748.466 704.819 821.593Z" fill="url(#paint2_radial_522_250)"/>
                    <path d="M671.699 284.827C691.863 317.417 681.018 360.105 647.477 380.176C613.935 400.247 570.399 390.1 550.236 357.512C530.072 324.923 540.916 282.234 574.458 262.163C607.999 242.092 651.536 252.238 671.699 284.827Z" fill="url(#paint3_radial_522_250)"/>
                    <path d="M659.417 290.114C676.316 318.96 667.227 356.746 639.116 374.511C611.006 392.278 574.52 383.295 557.621 354.45C540.723 325.604 549.811 287.818 577.922 270.052C606.032 252.286 642.519 261.267 659.417 290.114Z" fill="url(#paint4_radial_522_250)"/>
                    <path d="M215.673 1023.84C211.616 1081.42 177.645 1125.99 139.793 1123.41C101.944 1120.83 74.5499 1072.08 78.6074 1014.5C82.6649 956.921 116.637 912.339 154.487 914.919C192.337 917.499 219.73 966.263 215.673 1023.84Z" fill="url(#paint5_radial_522_250)"/>
                    <path d="M203.624 1022.93C200.29 1072.69 172.367 1111.2 141.256 1108.97C110.146 1106.74 87.6291 1064.61 90.9642 1014.87C94.2993 965.118 122.223 926.598 153.333 928.826C184.444 931.056 206.96 973.194 203.624 1022.93Z" fill="#0B0502" fill-opacity="0.1"/>
                    <path d="M1655.53 1239.53C1655.53 1298.94 1607.23 1347.1 1547.66 1347.1C1488.09 1347.1 1439.79 1298.94 1439.79 1239.53C1439.79 1180.12 1488.09 1131.96 1547.66 1131.96C1607.23 1131.96 1655.53 1180.12 1655.53 1239.53Z" fill="url(#paint6_radial_522_250)" fill-opacity="0.37"/>
                    <path d="M1649.18 1242.66C1649.18 1294.45 1606.16 1336.43 1553.1 1336.43C1500.03 1336.43 1457.01 1294.45 1457.01 1242.66C1457.01 1190.87 1500.03 1148.89 1553.1 1148.89C1606.16 1148.89 1649.18 1190.87 1649.18 1242.66Z" fill="#271307" fill-opacity="0.18"/>
                    <path d="M1005.11 1722.65C1005.11 1782.06 956.816 1830.22 897.243 1830.22C837.669 1830.22 789.375 1782.06 789.375 1722.65C789.375 1663.25 837.669 1615.08 897.243 1615.08C956.816 1615.08 1005.11 1663.25 1005.11 1722.65Z" fill="url(#paint7_radial_522_250)"/>
                    <path d="M978.553 1708.94C978.553 1762.35 936.547 1805.63 884.727 1805.63C832.908 1805.63 790.9 1762.35 790.9 1708.94C790.9 1655.54 832.908 1612.24 884.727 1612.24C936.547 1612.24 978.553 1655.54 978.553 1708.94Z" fill="#1D1008" fill-opacity="0.1"/>
                    <path d="M1547.76 751.551C1547.76 810.96 1499.48 859.118 1439.89 859.118C1380.33 859.118 1332.03 810.96 1332.03 751.551C1332.03 692.144 1380.33 643.984 1439.89 643.984C1499.48 643.984 1547.76 692.144 1547.76 751.551Z" fill="url(#paint8_radial_522_250)"/>
                    <path d="M1547.77 752.379C1547.77 806.266 1502.31 849.949 1446.21 849.949C1390.14 849.949 1344.66 806.266 1344.66 752.379C1344.66 698.494 1390.14 654.811 1446.21 654.811C1502.31 654.811 1547.77 698.494 1547.77 752.379Z" fill="#291103" fill-opacity="0.18"/>
                    <path d="M247.717 1534.44C265.84 1568.97 267.603 1604.06 251.658 1612.83C235.714 1621.58 208.097 1600.71 189.977 1566.18C171.854 1531.65 170.089 1496.56 186.034 1487.8C201.98 1479.03 229.596 1499.91 247.717 1534.44Z" fill="url(#paint9_radial_522_250)"/>
                    <path d="M243.357 1537.39C259.171 1567.29 260.711 1597.68 246.796 1605.26C232.882 1612.85 208.782 1594.77 192.968 1564.88C177.154 1534.97 175.613 1504.59 189.528 1497C203.443 1489.41 227.542 1507.49 243.357 1537.39Z" fill="url(#paint10_radial_522_250)"/>
                    <path d="M642.777 1381.62C650.163 1418.75 630.094 1453.88 597.95 1460.07C565.805 1466.26 533.755 1441.14 526.368 1404.01C518.981 1366.87 539.05 1331.74 571.195 1325.56C603.34 1319.38 635.389 1344.48 642.777 1381.62Z" fill="url(#paint11_radial_522_250)"/>
                    <path d="M1209.47 418.949C1209.47 448.745 1185.14 472.9 1155.11 472.9C1125.09 472.9 1100.74 448.745 1100.74 418.949C1100.74 389.154 1125.09 365 1155.11 365C1185.14 365 1209.47 389.154 1209.47 418.949Z" fill="url(#paint12_radial_522_250)"/>
                    <path d="M64.1875 790.155C66.7509 792.224 67.4039 798.64 67.41 801.589L79.0395 766.303C76.7469 771.81 71.9269 773.214 69.8034 773.229L64.1875 790.155Z" fill="url(#paint13_linear_522_250)"/>
                    <path d="M67.9634 782.05C69.5117 777.384 70.3327 773.436 69.7972 773.232C69.2617 773.027 67.5724 776.644 66.0241 781.31C64.4758 785.976 63.6548 789.923 64.1903 790.128C64.7258 790.332 66.4151 786.715 67.9634 782.05Z" fill="url(#paint14_linear_522_250)"/>
                    <path d="M67.5191 781.95C68.7651 778.195 69.5239 775.055 69.214 774.937C68.9041 774.819 67.6427 777.767 66.3967 781.522C65.1507 785.276 64.3919 788.416 64.7018 788.534C65.0117 788.653 66.273 785.705 67.5191 781.95Z" fill="#1E1B16" fill-opacity="0.58"/>
                    <path d="M953.938 84.7367C952.412 91.7151 941.194 98.0796 935.778 100.389L1010.99 97.2583C998.829 96.7469 991.963 87.7483 990.052 83.3128L953.938 84.7367Z" fill="url(#paint15_linear_522_250)"/>
                    <path d="M972.195 86.3434C982.149 85.9516 990.138 84.5961 990.038 83.3157C989.938 82.0353 981.787 81.3149 971.832 81.7067C961.878 82.0984 953.89 83.454 953.99 84.7344C954.09 86.0147 962.241 86.7351 972.195 86.3434Z" fill="url(#paint16_linear_522_250)"/>
                    <path d="M971.979 85.3177C979.989 85.0024 986.437 84.1461 986.379 83.4051C986.321 82.6641 979.78 82.319 971.769 82.6342C963.758 82.9495 957.311 83.8058 957.369 84.5468C957.426 85.2878 963.968 85.633 971.979 85.3177Z" fill="#1E1B16" fill-opacity="0.58"/>
                    <path d="M1202.73 102.86C1199.47 109.217 1187 112.508 1181.18 113.359L1254.7 129.529C1243.07 125.93 1238.73 115.477 1238.01 110.7L1202.73 102.86Z" fill="url(#paint17_linear_522_250)"/>
                    <path d="M1219.97 109.072C1229.69 111.234 1237.76 111.962 1237.99 110.699C1238.22 109.435 1230.53 106.658 1220.8 104.497C1211.08 102.335 1203.01 101.606 1202.78 102.87C1202.55 104.133 1210.25 106.91 1219.97 109.072Z" fill="url(#paint18_linear_522_250)"/>
                    <path d="M1220.02 108.025C1227.85 109.765 1234.3 110.582 1234.44 109.851C1234.57 109.12 1228.33 107.117 1220.51 105.377C1212.68 103.637 1206.23 102.819 1206.09 103.551C1205.96 104.282 1212.2 106.285 1220.02 108.025Z" fill="#1E1B16" fill-opacity="0.58"/>
                    <path d="M85.8262 694.777C92.2613 699.669 93.1563 714.311 92.7993 721.02L127.643 641.59C120.957 653.953 108.187 656.8 102.638 656.678L85.8262 694.777Z" fill="url(#paint19_linear_522_250)"/>
                    <path d="M96.7281 676.616C101.363 666.115 104.007 657.193 102.634 656.69C101.261 656.187 96.3902 664.292 91.7554 674.794C87.1206 685.295 84.4765 694.217 85.8497 694.72C87.2228 695.223 92.0933 687.118 96.7281 676.616Z" fill="url(#paint20_linear_522_250)"/>
                    <path d="M95.5613 676.354C99.2913 667.902 101.671 660.815 100.876 660.524C100.081 660.232 96.4133 666.848 92.6834 675.299C88.9534 683.75 86.5739 690.838 87.3687 691.129C88.1634 691.42 91.8314 684.805 95.5613 676.354Z" fill="#1E1B16" fill-opacity="0.58"/>
                    <path d="M152.103 722.379C161.997 700.364 165.885 679.462 160.788 675.694C155.691 671.925 143.539 686.716 133.645 708.731C123.751 730.745 119.862 751.647 124.959 755.416C130.056 759.185 142.209 744.394 152.103 722.379Z" fill="url(#paint21_radial_522_250)"/>
                    <path d="M145.949 717.83C153.016 702.105 155.99 687.321 152.592 684.808C149.194 682.296 140.711 693.006 133.644 708.731C126.577 724.456 123.602 739.24 127 741.753C130.398 744.265 138.882 733.554 145.949 717.83Z" fill="#140E04" fill-opacity="0.4"/>
                    <path d="M145.956 717.83C152.08 704.202 154.979 691.626 152.431 689.742C149.882 687.857 142.851 697.378 136.727 711.006C130.602 724.634 127.703 737.209 130.251 739.094C132.8 740.978 139.831 731.458 145.956 717.83Z" fill="#0D0801" fill-opacity="0.29"/>
                    <path d="M92.4273 882.291C95.3698 869.589 94.8226 858.108 91.2053 856.646C87.5879 855.185 82.2702 864.297 79.3277 876.999C76.3853 889.701 76.9324 901.183 80.5498 902.644C84.1672 904.105 89.4849 894.993 92.4273 882.291Z" fill="url(#paint22_radial_522_250)"/>
                    <path d="M88.0601 880.528C90.1618 871.455 89.9107 863.311 87.4991 862.336C85.0875 861.362 81.4287 867.927 79.327 877C77.2253 886.073 77.4765 894.217 79.888 895.192C82.2996 896.166 85.9584 889.601 88.0601 880.528Z" fill="#140E04" fill-opacity="0.4"/>
                    <path d="M88.0628 880.528C89.8843 872.665 89.8947 865.698 88.086 864.968C86.2773 864.237 83.3345 870.019 81.513 877.882C79.6915 885.745 79.6811 892.711 81.4898 893.442C83.2984 894.173 86.2413 888.391 88.0628 880.528Z" fill="#0D0801" fill-opacity="0.29"/>
                    <path d="M1033.67 149.922C1057.79 150.861 1078.63 146.648 1080.21 140.511C1081.8 134.374 1063.54 128.638 1039.42 127.699C1015.3 126.759 994.464 130.973 992.876 137.11C991.288 143.247 1009.55 148.983 1033.67 149.922Z" fill="url(#paint23_radial_522_250)"/>
                    <path d="M1035.59 142.517C1052.81 143.188 1067.64 140.415 1068.7 136.324C1069.76 132.232 1056.65 128.372 1039.42 127.701C1022.2 127.03 1007.37 129.803 1006.31 133.894C1005.25 137.985 1018.36 141.846 1035.59 142.517Z" fill="#140E04" fill-opacity="0.4"/>
                    <path d="M1035.59 142.52C1050.52 143.101 1063.27 141.085 1064.06 138.017C1064.85 134.948 1053.39 131.99 1038.46 131.408C1023.53 130.827 1010.79 132.843 1009.99 135.911C1009.2 138.98 1020.66 141.939 1035.59 142.52Z" fill="#0D0801" fill-opacity="0.29"/>
                    <path d="M1170.24 146.121C1181.98 148.263 1192.5 147.26 1193.74 143.879C1194.99 140.498 1186.49 136.021 1174.76 133.878C1163.02 131.735 1152.5 132.739 1151.26 136.119C1150.01 139.5 1158.51 143.978 1170.24 146.121Z" fill="url(#paint24_radial_522_250)"/>
                    <path d="M1171.75 142.042C1180.13 143.573 1187.6 142.987 1188.43 140.733C1189.26 138.479 1183.14 135.411 1174.76 133.881C1166.38 132.35 1158.91 132.936 1158.08 135.19C1157.25 137.444 1163.37 140.512 1171.75 142.042Z" fill="#140E04" fill-opacity="0.4"/>
                    <path d="M1171.75 142.043C1179.01 143.369 1185.4 143.074 1186.03 141.384C1186.65 139.693 1181.27 137.248 1174.01 135.921C1166.74 134.595 1160.35 134.89 1159.73 136.58C1159.1 138.271 1164.49 140.716 1171.75 142.043Z" fill="#0D0801" fill-opacity="0.29"/>
                    <path d="M1279.07 172.858C1288.5 175.768 1297.25 176.204 1298.62 173.832C1299.99 171.46 1293.45 167.178 1284.02 164.268C1274.6 161.359 1265.84 160.923 1264.48 163.295C1263.11 165.667 1269.64 169.948 1279.07 172.858Z" fill="url(#paint25_radial_522_250)"/>
                    <path d="M1280.72 169.995C1287.46 172.074 1293.66 172.477 1294.57 170.895C1295.48 169.314 1290.76 166.347 1284.03 164.269C1277.29 162.191 1271.09 161.788 1270.18 163.369C1269.27 164.95 1273.99 167.917 1280.72 169.995Z" fill="#140E04" fill-opacity="0.4"/>
                    <path d="M1280.72 169.996C1286.56 171.797 1291.84 172.296 1292.53 171.11C1293.21 169.924 1289.04 167.502 1283.2 165.701C1277.36 163.9 1272.08 163.401 1271.39 164.587C1270.71 165.773 1274.89 168.194 1280.72 169.996Z" fill="#0D0801" fill-opacity="0.29"/>
                    <path d="M1276.5 255.976C1297.76 261.009 1317.08 259.971 1319.65 253.658C1322.22 247.344 1307.06 238.146 1285.8 233.113C1264.54 228.08 1245.22 229.118 1242.65 235.432C1240.08 241.745 1255.24 250.944 1276.5 255.976Z" fill="url(#paint26_radial_522_250)"/>
                    <path d="M1279.61 248.361C1294.79 251.956 1308.49 251.458 1310.2 247.249C1311.92 243.04 1300.99 236.714 1285.8 233.119C1270.62 229.524 1256.92 230.022 1255.21 234.231C1253.49 238.44 1264.42 244.766 1279.61 248.361Z" fill="#140E04" fill-opacity="0.4"/>
                    <path d="M1279.6 248.364C1292.76 251.48 1304.47 251.446 1305.76 248.29C1307.04 245.133 1297.41 240.048 1284.25 236.932C1271.09 233.817 1259.38 233.85 1258.09 237.007C1256.81 240.164 1266.44 245.249 1279.6 248.364Z" fill="#0D0801" fill-opacity="0.29"/>
                    <path d="M914.884 224.485C935.254 223.096 952.267 217.5 952.883 211.985C953.5 206.471 937.485 203.125 917.115 204.514C896.744 205.902 879.731 211.498 879.115 217.013C878.499 222.528 894.513 225.873 914.884 224.485Z" fill="url(#paint27_radial_522_250)"/>
                    <path d="M915.632 217.829C930.182 216.837 942.311 213.053 942.721 209.377C943.132 205.7 931.67 203.523 917.119 204.515C902.569 205.507 890.44 209.291 890.03 212.968C889.619 216.644 901.081 218.821 915.632 217.829Z" fill="#140E04" fill-opacity="0.4"/>
                    <path d="M915.628 217.834C928.238 216.974 938.711 214.042 939.019 211.285C939.327 208.527 929.354 206.989 916.743 207.848C904.133 208.708 893.66 211.64 893.352 214.397C893.044 217.154 903.017 218.693 915.628 217.834Z" fill="#0D0801" fill-opacity="0.29"/>
                    <path d="M878.079 140.696C890.273 139.247 900.319 135.37 900.519 132.036C900.719 128.703 890.995 127.175 878.802 128.623C866.608 130.072 856.561 133.949 856.361 137.282C856.162 140.616 865.885 142.144 878.079 140.696Z" fill="url(#paint28_radial_522_250)"/>
                    <path d="M878.32 136.673C887.03 135.638 894.198 132.998 894.332 130.775C894.465 128.553 887.512 127.59 878.802 128.625C870.092 129.659 862.923 132.3 862.79 134.522C862.657 136.745 869.61 137.708 878.32 136.673Z" fill="#140E04" fill-opacity="0.4"/>
                    <path d="M878.32 136.672C885.869 135.776 892.069 133.697 892.169 132.03C892.268 130.364 886.23 129.739 878.682 130.636C871.133 131.533 864.933 133.611 864.833 135.278C864.733 136.945 870.772 137.569 878.32 136.672Z" fill="#0D0801" fill-opacity="0.29"/>
                    <path d="M1108.45 212.919C1124.72 214.458 1138.97 211.871 1140.28 207.14C1141.59 202.409 1129.46 197.327 1113.2 195.787C1096.93 194.248 1082.68 196.835 1081.37 201.566C1080.06 206.296 1092.19 211.379 1108.45 212.919Z" fill="url(#paint29_radial_522_250)"/>
                    <path d="M1110.04 207.211C1121.66 208.31 1131.78 206.645 1132.66 203.491C1133.53 200.337 1124.82 196.889 1113.2 195.79C1101.58 194.69 1091.46 196.356 1090.58 199.509C1089.71 202.663 1098.42 206.111 1110.04 207.211Z" fill="#140E04" fill-opacity="0.4"/>
                    <path d="M1110.04 207.213C1120.11 208.166 1128.8 207.021 1129.46 204.656C1130.11 202.29 1122.48 199.6 1112.41 198.647C1102.34 197.694 1093.65 198.839 1092.99 201.205C1092.34 203.57 1099.97 206.26 1110.04 207.213Z" fill="#0D0801" fill-opacity="0.29"/>
                    <path d="M172.309 541.036C175.524 544.478 174.61 552.99 173.751 556.816L201.49 514.51C196.449 520.971 188.843 521.364 185.671 520.753L172.309 541.036Z" fill="url(#paint30_linear_522_250)"/>
                    <path d="M180.332 531.651C184.015 526.06 186.403 521.185 185.664 520.761C184.925 520.338 181.34 524.527 177.656 530.117C173.973 535.708 171.585 540.584 172.324 541.007C173.063 541.431 176.648 537.242 180.332 531.651Z" fill="url(#paint31_linear_522_250)"/>
                    <path d="M179.695 531.384C182.66 526.884 184.717 523.038 184.289 522.793C183.861 522.548 181.112 525.997 178.147 530.496C175.183 534.995 173.126 538.841 173.554 539.086C173.981 539.332 176.731 535.883 179.695 531.384Z" fill="#1E1B16" fill-opacity="0.58"/>
                    <path d="M202.611 496.262C205.471 499.416 204.408 506.926 203.519 510.286L230.088 473.719C225.291 479.278 218.301 479.378 215.407 478.732L202.611 496.262Z" fill="url(#paint32_linear_522_250)"/>
                    <path d="M210.226 488.209C213.753 483.377 216.072 479.137 215.405 478.738C214.738 478.338 211.338 481.931 207.811 486.763C204.283 491.595 201.964 495.835 202.631 496.235C203.298 496.634 206.698 493.041 210.226 488.209Z" fill="url(#paint33_linear_522_250)"/>
                    <path d="M209.639 487.954C212.478 484.066 214.466 480.727 214.08 480.496C213.694 480.264 211.08 483.229 208.241 487.118C205.403 491.006 203.414 494.346 203.8 494.577C204.186 494.808 206.8 491.843 209.639 487.954Z" fill="#1E1B16" fill-opacity="0.58"/>
                    <path d="M170.276 603.315C179.167 588.971 183.474 575.182 179.897 572.517C176.32 569.852 166.213 579.32 157.322 593.664C148.432 608.008 144.124 621.797 147.702 624.462C151.279 627.127 161.386 617.659 170.276 603.315Z" fill="url(#paint34_linear_522_250)"/>
                    <path d="M165.961 600.097C172.311 589.851 175.526 580.105 173.141 578.328C170.756 576.551 163.675 583.417 157.325 593.663C150.974 603.909 147.759 613.655 150.144 615.432C152.529 617.208 159.61 610.343 165.961 600.097Z" fill="#140E04" fill-opacity="0.4"/>
                    <path d="M165.958 600.099C171.462 591.219 174.473 582.94 172.685 581.608C170.896 580.275 164.984 586.394 159.481 595.273C153.977 604.153 150.966 612.432 152.754 613.764C154.543 615.097 160.454 608.979 165.958 600.099Z" fill="#0D0801" fill-opacity="0.3"/>
                    <path d="M237.157 574.635C247.027 560.868 252.471 547.425 249.318 544.609C246.164 541.794 235.606 550.672 225.736 564.439C215.866 578.207 210.422 591.65 213.576 594.465C216.73 597.281 227.288 588.402 237.157 574.635Z" fill="url(#paint35_linear_522_250)"/>
                    <path d="M233.356 571.236C240.406 561.402 244.416 551.908 242.313 550.031C240.211 548.154 232.791 554.605 225.741 564.438C218.692 574.272 214.681 583.766 216.784 585.643C218.886 587.52 226.306 581.069 233.356 571.236Z" fill="#140E04" fill-opacity="0.4"/>
                    <path d="M233.35 571.237C239.46 562.714 243.134 554.664 241.557 553.256C239.98 551.848 233.749 557.616 227.639 566.139C221.529 574.661 217.855 582.712 219.431 584.119C221.008 585.527 227.24 579.759 233.35 571.237Z" fill="#0D0801" fill-opacity="0.3"/>
                    <path d="M335.005 496.036C347.595 482.476 355.177 468.548 351.939 464.926C348.702 461.305 335.871 469.361 323.281 482.921C310.691 496.48 303.109 510.408 306.346 514.03C309.583 517.652 322.414 509.595 335.005 496.036Z" fill="url(#paint36_linear_522_250)"/>
                    <path d="M331.103 491.665C340.096 481.98 345.637 472.171 343.478 469.756C341.32 467.342 332.28 473.236 323.287 482.922C314.294 492.607 308.753 502.416 310.912 504.831C313.07 507.245 322.11 501.351 331.103 491.665Z" fill="#140E04" fill-opacity="0.4"/>
                    <path d="M331.097 491.663C338.891 483.269 343.897 474.997 342.278 473.186C340.66 471.375 333.029 476.712 325.235 485.106C317.441 493.5 312.435 501.773 314.054 503.583C315.673 505.394 323.303 500.057 331.097 491.663Z" fill="#0D0801" fill-opacity="0.3"/>
                    <path d="M225.877 686.363C232.25 674.54 235.057 663.383 232.146 661.443C229.235 659.503 221.709 667.515 215.335 679.337C208.962 691.16 206.155 702.317 209.066 704.257C211.977 706.197 219.503 698.185 225.877 686.363Z" fill="url(#paint37_linear_522_250)"/>
                    <path d="M222.367 684.02C226.919 675.575 229.036 667.681 227.096 666.388C225.155 665.094 219.891 670.892 215.339 679.336C210.786 687.781 208.669 695.675 210.61 696.969C212.55 698.262 217.814 692.465 222.367 684.02Z" fill="#140E04" fill-opacity="0.4"/>
                    <path d="M222.362 684.023C226.308 676.704 228.326 669.985 226.871 669.015C225.415 668.045 221.037 673.191 217.091 680.51C213.146 687.829 211.127 694.548 212.583 695.518C214.038 696.488 218.417 691.341 222.362 684.023Z" fill="#0D0801" fill-opacity="0.3"/>
                    <path d="M265.762 474.934C271.398 468.72 274.732 462.366 273.209 460.742C271.687 459.117 265.884 462.838 260.249 469.053C254.613 475.267 251.279 481.621 252.802 483.245C254.324 484.87 260.127 481.149 265.762 474.934Z" fill="url(#paint38_linear_522_250)"/>
                    <path d="M263.925 472.974C267.95 468.535 270.391 464.059 269.376 462.976C268.361 461.893 264.275 464.614 260.249 469.053C256.224 473.491 253.784 477.968 254.799 479.05C255.814 480.133 259.9 477.413 263.925 472.974Z" fill="#140E04" fill-opacity="0.4"/>
                    <path d="M263.925 472.973C267.414 469.126 269.625 465.35 268.863 464.537C268.102 463.725 264.657 466.186 261.168 470.033C257.68 473.879 255.469 477.656 256.23 478.468C256.991 479.281 260.436 476.82 263.925 472.973Z" fill="#0D0801" fill-opacity="0.3"/>
                    <path d="M170.567 839.396C172.767 831.301 172.854 824.126 170.76 823.37C168.666 822.614 165.184 828.563 162.984 836.659C160.784 844.754 160.697 851.929 162.791 852.685C164.885 853.441 168.366 847.492 170.567 839.396Z" fill="url(#paint39_linear_522_250)"/>
                    <path d="M168.038 838.484C169.609 832.702 169.752 827.606 168.356 827.102C166.96 826.598 164.554 830.877 162.983 836.659C161.411 842.441 161.268 847.537 162.664 848.042C164.06 848.546 166.466 844.267 168.038 838.484Z" fill="#140E04" fill-opacity="0.4"/>
                    <path d="M168.043 838.483C169.405 833.471 169.661 829.102 168.614 828.724C167.567 828.346 165.614 832.102 164.252 837.114C162.889 842.125 162.634 846.494 163.681 846.872C164.728 847.25 166.681 843.494 168.043 838.483Z" fill="#0D0801" fill-opacity="0.3"/>
                    <path d="M97.9634 786.294C101.083 776.377 101.55 767.412 99.0072 766.271C96.4641 765.129 91.8735 772.243 88.754 782.161C85.6344 792.078 85.1671 801.043 87.7102 802.184C90.2533 803.326 94.8438 796.211 97.9634 786.294Z" fill="url(#paint40_linear_522_250)"/>
                    <path d="M94.8969 784.916C97.1252 777.832 97.5571 771.473 95.8617 770.712C94.1663 769.951 90.9855 775.077 88.7573 782.16C86.529 789.244 86.0971 795.603 87.7925 796.364C89.4879 797.125 92.6687 792 94.8969 784.916Z" fill="#140E04" fill-opacity="0.4"/>
                    <path d="M94.8963 784.918C96.8275 778.779 97.3622 773.339 96.0906 772.768C94.8191 772.198 92.2227 776.712 90.2916 782.851C88.3604 788.99 87.8257 794.429 89.0973 795C90.3689 795.571 92.9652 791.057 94.8963 784.918Z" fill="#0D0801" fill-opacity="0.3"/>
                    <path d="M64.4742 741.676C64.9732 742.702 64.5551 743.957 63.5404 744.48C62.5257 745.002 61.2988 744.594 60.7999 743.568L58.3594 738.546L62.0337 736.654L64.4742 741.676Z" fill="#12102B"/>
                    <path d="M66.1351 740.792L64.5562 745.481C64.3849 745.99 64.6524 746.558 65.1537 746.75L65.2288 746.779C65.7301 746.971 66.2753 746.714 66.4465 746.205L68.0254 741.516C68.1967 741.007 67.9292 740.439 67.428 740.247L67.3528 740.219C66.8515 740.027 66.3064 740.283 66.1351 740.792Z" fill="#1A051C"/>
                    <g filter="url(#filter0_i_522_250)">
                    <path d="M70.3206 754.995L77.5038 757.745L77.1739 758.726L78.6862 759.304L85.6616 739.855L83.7713 739.132L83.4414 740.112L76.2582 737.361L70.8418 738.236L69.6323 741.829L68.1201 741.25L66.4707 746.148L67.9829 746.727L66.5535 750.973L70.3206 754.995Z" fill="#2F2E41"/>
                    </g>
                    <path d="M70.6991 737.813L69.5996 741.079L83.0769 746.239L85.661 739.855L83.7357 739.118L83.4359 740.009L76.1196 737.207L70.6991 737.813Z" fill="#474565"/>
                    <path d="M60.1092 744.081C58.6873 743.537 57.9286 741.926 58.4145 740.483C58.9003 739.04 60.4466 738.312 61.8685 738.856L66.2252 740.524L64.466 745.749L60.1092 744.081Z" fill="#2F2E41"/>
                    <path d="M62.9343 741.846C63.3594 740.584 62.7167 739.182 61.4987 738.716C60.2807 738.25 58.9487 738.895 58.5236 740.157C58.0985 741.42 58.7413 742.821 59.9593 743.288C61.1773 743.754 62.5093 743.109 62.9343 741.846Z" fill="#474565"/>
                    <path d="M62.195 741.931C62.3164 741.57 62.1328 741.17 61.7848 741.037C61.4368 740.903 61.0562 741.088 60.9348 741.448C60.8133 741.809 60.997 742.21 61.3449 742.343C61.6929 742.476 62.0735 742.292 62.195 741.931Z" fill="#1D071F"/>
                    <path d="M69.5074 747.681L68.8477 749.641L73.2584 751.329L73.9181 749.37L69.5074 747.681Z" fill="#18021E"/>
                    <path d="M71.9293 740.496L71.2695 742.455L75.6803 744.144L76.34 742.184L71.9293 740.496Z" fill="#15021B"/>
                    <path d="M36.905 737.107L57.9014 738.631L62.9986 736.572L76.856 721.339L76.0839 719.428L36.5801 735.386L36.905 737.107Z" fill="#474565"/>
                    <path d="M52.9686 725.57L45.2734 731.965L47.7888 730.856L53.8745 725.922L55.761 725.09L64.4153 724.281L66.9307 723.172L56.1127 724.185L52.9686 725.57Z" fill="#474565"/>
                    <path d="M54.1797 725.766L54.8952 725.445L55.8176 727.621L55.1019 727.943L54.1797 725.766Z" fill="#2F2E41"/>
                    <path d="M50.5257 717.632C50.3924 717.315 50.5397 716.943 50.8545 716.803C51.1694 716.663 51.5328 716.808 51.666 717.126L54.8692 724.764L53.7289 725.27L50.5257 717.632Z" fill="#474565"/>
                    <path d="M60.02 738.179L55.3281 727.979L70.3998 721.715L60.02 738.179Z" fill="black" fill-opacity="0.3"/>
                    <path d="M55.4466 727.814L60.0235 738.178L42.0918 733.243L55.4466 727.814Z" fill="black" fill-opacity="0.6"/>
                    <path d="M57.9871 738.533L59.622 737.903L42.0915 733.242L36.5098 735.248L36.8591 737.28L57.9871 738.533Z" fill="black" fill-opacity="0.85"/>
                    </g>
                    <defs>
                    <filter id="filter0_i_522_250" x="66.4707" y="737.361" width="19.1933" height="21.9438" filterUnits="userSpaceOnUse" color-interpolation-filters="sRGB">
                    <feFlood flood-opacity="0" result="BackgroundImageFix"/>
                    <feBlend mode="normal" in="SourceGraphic" in2="BackgroundImageFix" result="shape"/>
                    <feColorMatrix in="SourceAlpha" type="matrix" values="0 0 0 0 0 0 0 0 0 0 0 0 0 0 0 0 0 0 127 0" result="hardAlpha"/>
                    <feOffset dx="0.00242954" dy="0.000485909"/>
                    <feGaussianBlur stdDeviation="0.000971817"/>
                    <feComposite in2="hardAlpha" operator="arithmetic" k2="-1" k3="1"/>
                    <feColorMatrix type="matrix" values="0 0 0 0 0 0 0 0 0 0 0 0 0 0 0 0 0 0 0.25 0"/>
                    <feBlend mode="normal" in2="shape" result="effect1_innerShadow_522_250"/>
                    </filter>
                    <radialGradient id="paint0_radial_522_250" cx="0" cy="0" r="1" gradientUnits="userSpaceOnUse" gradientTransform="translate(291.621 402.358) rotate(46.8628) scale(1909.15 1918.19)">
                    <stop stop-color="#925700"/>
                    <stop offset="0.182292" stop-color="#955102"/>
                    <stop offset="0.296875" stop-color="#984D04"/>
                    <stop offset="0.453125" stop-color="#9B4806"/>
                    <stop offset="0.538859" stop-color="#9C4407"/>
                    <stop offset="0.709693" stop-color="#752918"/>
                    <stop offset="0.901042" stop-color="#110508"/>
                    </radialGradient>
                    <radialGradient id="paint1_radial_522_250" cx="0" cy="0" r="1" gradientUnits="userSpaceOnUse" gradientTransform="translate(662.707 929.334) rotate(-133.49) scale(282.856 468.966)">
                    <stop offset="0.0104167" stop-color="#9F4009" stop-opacity="0.64"/>
                    <stop offset="0.5406" stop-color="#7E370E" stop-opacity="0.56"/>
                    <stop offset="1" stop-color="#7E2D08" stop-opacity="0.54"/>
                    </radialGradient>
                    <radialGradient id="paint2_radial_522_250" cx="0" cy="0" r="1" gradientUnits="userSpaceOnUse" gradientTransform="translate(654.481 922.056) rotate(-132.643) scale(262.069 433.635)">
                    <stop offset="0.0104167" stop-color="#9F4009" stop-opacity="0.64"/>
                    <stop offset="0.5406" stop-color="#7E370E" stop-opacity="0.56"/>
                    <stop offset="1" stop-color="#7E2D08" stop-opacity="0.54"/>
                    </radialGradient>
                    <radialGradient id="paint3_radial_522_250" cx="0" cy="0" r="1" gradientUnits="userSpaceOnUse" gradientTransform="translate(676.012 343.594) rotate(-164.919) scale(140.48 229.52)">
                    <stop offset="0.0104167" stop-color="#9F4009" stop-opacity="0.2"/>
                    <stop offset="0.5406" stop-color="#7E370E" stop-opacity="0.26"/>
                    <stop offset="1" stop-color="#511E07" stop-opacity="0.24"/>
                    </radialGradient>
                    <radialGradient id="paint4_radial_522_250" cx="0" cy="0" r="1" gradientUnits="userSpaceOnUse" gradientTransform="translate(663.032 342.131) rotate(-164.114) scale(118.192 202.37)">
                    <stop offset="0.0104167" stop-color="#9F4009" stop-opacity="0.2"/>
                    <stop offset="0.5406" stop-color="#7E370E" stop-opacity="0.26"/>
                    <stop offset="1" stop-color="#511E07" stop-opacity="0.24"/>
                    </radialGradient>
                    <radialGradient id="paint5_radial_522_250" cx="0" cy="0" r="1" gradientUnits="userSpaceOnUse" gradientTransform="translate(183.707 1101.14) rotate(-117.521) scale(178.296 264.376)">
                    <stop offset="0.0104167" stop-color="#9F4009" stop-opacity="0.2"/>
                    <stop offset="0.5406" stop-color="#7E370E" stop-opacity="0.26"/>
                    <stop offset="1" stop-color="#511E07" stop-opacity="0.24"/>
                    </radialGradient>
                    <radialGradient id="paint6_radial_522_250" cx="0" cy="0" r="1" gradientUnits="userSpaceOnUse" gradientTransform="translate(1628.26 1316.34) rotate(-136.645) scale(221.134 369.726)">
                    <stop offset="0.0104167" stop-color="#4A1F07" stop-opacity="0.22"/>
                    <stop offset="0.5406" stop-color="#552408" stop-opacity="0.32"/>
                    <stop offset="1" stop-color="#511E07" stop-opacity="0.27"/>
                    </radialGradient>
                    <radialGradient id="paint7_radial_522_250" cx="0" cy="0" r="1" gradientUnits="userSpaceOnUse" gradientTransform="translate(977.85 1799.47) rotate(-136.645) scale(221.134 369.726)">
                    <stop offset="0.0104167" stop-color="#411E0A" stop-opacity="0.15"/>
                    <stop offset="0.5406" stop-color="#2F1405" stop-opacity="0.3"/>
                    <stop offset="1" stop-color="#511E07"/>
                    </radialGradient>
                    <radialGradient id="paint8_radial_522_250" cx="0" cy="0" r="1" gradientUnits="userSpaceOnUse" gradientTransform="translate(1520.51 828.369) rotate(-136.645) scale(221.134 369.726)">
                    <stop offset="0.0104167" stop-color="#9F4009" stop-opacity="0.33"/>
                    <stop offset="0.5406" stop-color="#7E370E" stop-opacity="0.47"/>
                    <stop offset="1" stop-color="#511E07" stop-opacity="0.44"/>
                    </radialGradient>
                    <radialGradient id="paint9_radial_522_250" cx="0" cy="0" r="1" gradientUnits="userSpaceOnUse" gradientTransform="translate(261.495 1587.98) rotate(-141.391) scale(111.316 137.176)">
                    <stop offset="0.0104167" stop-color="#9F4009"/>
                    <stop offset="0.5406" stop-color="#7E370E" stop-opacity="0.79"/>
                    <stop offset="1" stop-color="#511E07" stop-opacity="0.25"/>
                    </radialGradient>
                    <radialGradient id="paint10_radial_522_250" cx="0" cy="0" r="1" gradientUnits="userSpaceOnUse" gradientTransform="translate(255.379 1583.76) rotate(-141.608) scale(96.8487 119.14)">
                    <stop offset="0.0104167" stop-color="#9F4009"/>
                    <stop offset="0.5406" stop-color="#7E370E" stop-opacity="0.79"/>
                    <stop offset="1" stop-color="#511E07" stop-opacity="0.25"/>
                    </radialGradient>
                    <radialGradient id="paint11_radial_522_250" cx="0" cy="0" r="1" gradientUnits="userSpaceOnUse" gradientTransform="translate(637.621 1432.48) rotate(-143.479) scale(131.453 217.864)">
                    <stop offset="0.0104167" stop-color="#9F4009" stop-opacity="0.43"/>
                    <stop offset="0.5406" stop-color="#7E370E" stop-opacity="0.46"/>
                    <stop offset="1" stop-color="#511E07" stop-opacity="0.56"/>
                    </radialGradient>
                    <radialGradient id="paint12_radial_522_250" cx="0" cy="0" r="1" gradientUnits="userSpaceOnUse" gradientTransform="translate(1195.73 457.478) rotate(-136.784) scale(111.196 185.859)">
                    <stop offset="0.0104167" stop-color="#9F4009" stop-opacity="0.33"/>
                    <stop offset="0.5406" stop-color="#7E370E" stop-opacity="0.47"/>
                    <stop offset="1" stop-color="#511E07" stop-opacity="0.44"/>
                    </radialGradient>
                    <linearGradient id="paint13_linear_522_250" x1="64.9134" y1="787.913" x2="79.9749" y2="786.841" gradientUnits="userSpaceOnUse">
                    <stop stop-color="#9F4009"/>
                    <stop offset="1" stop-color="#925700"/>
                    </linearGradient>
                    <linearGradient id="paint14_linear_522_250" x1="72.4125" y1="767.431" x2="74.074" y2="782.673" gradientUnits="userSpaceOnUse">
                    <stop stop-color="#9F4009"/>
                    <stop offset="0.901042" stop-color="#925900"/>
                    <stop offset="1" stop-color="#925900"/>
                    </linearGradient>
                    <linearGradient id="paint15_linear_522_250" x1="959.458" y1="83.2687" x2="967.5" y2="118.998" gradientUnits="userSpaceOnUse">
                    <stop stop-color="#925700"/>
                    <stop offset="1" stop-color="#9F4009"/>
                    </linearGradient>
                    <linearGradient id="paint16_linear_522_250" x1="1003.03" y1="84.2745" x2="976.074" y2="98.8816" gradientUnits="userSpaceOnUse">
                    <stop stop-color="#9F4009"/>
                    <stop offset="0.901042" stop-color="#925900"/>
                    <stop offset="1" stop-color="#925900"/>
                    </linearGradient>
                    <linearGradient id="paint17_linear_522_250" x1="1208.5" y1="102.998" x2="1206.5" y2="120.998" gradientUnits="userSpaceOnUse">
                    <stop stop-color="#925700"/>
                    <stop offset="1" stop-color="#9F4009"/>
                    </linearGradient>
                    <linearGradient id="paint18_linear_522_250" x1="1250.31" y1="114.941" x2="1220.52" y2="122.185" gradientUnits="userSpaceOnUse">
                    <stop stop-color="#9F4009"/>
                    <stop offset="0.901042" stop-color="#925900"/>
                    <stop offset="1" stop-color="#925900"/>
                    </linearGradient>
                    <linearGradient id="paint19_linear_522_250" x1="93.475" y1="674.289" x2="115.987" y2="700.396" gradientUnits="userSpaceOnUse">
                    <stop stop-color="#925700"/>
                    <stop offset="1" stop-color="#9F4009"/>
                    </linearGradient>
                    <linearGradient id="paint20_linear_522_250" x1="104.791" y1="651.501" x2="102.539" y2="677.05" gradientUnits="userSpaceOnUse">
                    <stop stop-color="#925900"/>
                    <stop offset="1" stop-color="#9F4009"/>
                    </linearGradient>
                    <radialGradient id="paint21_radial_522_250" cx="0" cy="0" r="1" gradientUnits="userSpaceOnUse" gradientTransform="translate(167.326 681.173) rotate(34.4237) scale(14.4504 53.7604)">
                    <stop stop-color="#925700"/>
                    <stop offset="1" stop-color="#9F4009" stop-opacity="0.26"/>
                    </radialGradient>
                    <radialGradient id="paint22_radial_522_250" cx="0" cy="0" r="1" gradientUnits="userSpaceOnUse" gradientTransform="translate(95.9351 858.863) rotate(20.177) scale(8.91703 29.2816)">
                    <stop stop-color="#925700"/>
                    <stop offset="1" stop-color="#9F4009" stop-opacity="0.26"/>
                    </radialGradient>
                    <radialGradient id="paint23_radial_522_250" cx="0" cy="0" r="1" gradientUnits="userSpaceOnUse" gradientTransform="translate(1042.5 127.498) rotate(113.962) scale(24.6221 91.603)">
                    <stop offset="0.046875" stop-color="#925700"/>
                    <stop offset="1" stop-color="#9F4009" stop-opacity="0.26"/>
                    </radialGradient>
                    <radialGradient id="paint24_radial_522_250" cx="0" cy="0" r="1" gradientUnits="userSpaceOnUse" gradientTransform="translate(1176.28 133.969) rotate(118.63) scale(13.8042 46.2686)">
                    <stop offset="0.046875" stop-color="#925700"/>
                    <stop offset="1" stop-color="#9F4009" stop-opacity="0.26"/>
                    </radialGradient>
                    <radialGradient id="paint25_radial_522_250" cx="0" cy="0" r="1" gradientUnits="userSpaceOnUse" gradientTransform="translate(1285.27 164.507) rotate(128.912) scale(10.6154 37.4411)">
                    <stop offset="0.046875" stop-color="#925700"/>
                    <stop offset="1" stop-color="#9F4009" stop-opacity="0.26"/>
                    </radialGradient>
                    <radialGradient id="paint26_radial_522_250" cx="0" cy="0" r="1" gradientUnits="userSpaceOnUse" gradientTransform="translate(1288.57 233.412) rotate(120.315) scale(26.0066 85.3739)">
                    <stop offset="0.046875" stop-color="#925700"/>
                    <stop offset="1" stop-color="#9F4009" stop-opacity="0.26"/>
                    </radialGradient>
                    <radialGradient id="paint27_radial_522_250" cx="0" cy="0" r="1" gradientUnits="userSpaceOnUse" gradientTransform="translate(919.678 204.056) rotate(105.64) scale(21.3943 78.6178)">
                    <stop offset="0.046875" stop-color="#925700"/>
                    <stop offset="1" stop-color="#9F4009" stop-opacity="0.26"/>
                    </radialGradient>
                    <radialGradient id="paint28_radial_522_250" cx="0" cy="0" r="1" gradientUnits="userSpaceOnUse" gradientTransform="translate(880.327 128.271) rotate(102.69) scale(12.8729 47.3035)">
                    <stop offset="0.046875" stop-color="#925700"/>
                    <stop offset="1" stop-color="#9F4009" stop-opacity="0.26"/>
                    </radialGradient>
                    <radialGradient id="paint29_radial_522_250" cx="0" cy="0" r="1" gradientUnits="userSpaceOnUse" gradientTransform="translate(1115.29 195.734) rotate(113.91) scale(18.8199 63.3027)">
                    <stop offset="0.046875" stop-color="#925700"/>
                    <stop offset="1" stop-color="#9F4009" stop-opacity="0.26"/>
                    </radialGradient>
                    <linearGradient id="paint30_linear_522_250" x1="174.052" y1="538.344" x2="196.814" y2="541.595" gradientUnits="userSpaceOnUse">
                    <stop stop-color="#925700"/>
                    <stop offset="1" stop-color="#9F4009"/>
                    </linearGradient>
                    <linearGradient id="paint31_linear_522_250" x1="191.274" y1="514.016" x2="189.215" y2="534.266" gradientUnits="userSpaceOnUse">
                    <stop stop-color="#9F4009"/>
                    <stop offset="0.901042" stop-color="#925900"/>
                    <stop offset="1" stop-color="#925900"/>
                    </linearGradient>
                    <linearGradient id="paint32_linear_522_250" x1="204.282" y1="493.935" x2="225.067" y2="497.648" gradientUnits="userSpaceOnUse">
                    <stop stop-color="#925700"/>
                    <stop offset="1" stop-color="#9F4009"/>
                    </linearGradient>
                    <linearGradient id="paint33_linear_522_250" x1="220.73" y1="472.946" x2="218.333" y2="490.818" gradientUnits="userSpaceOnUse">
                    <stop stop-color="#9F4009"/>
                    <stop offset="0.901042" stop-color="#925900"/>
                    <stop offset="1" stop-color="#925900"/>
                    </linearGradient>
                    <linearGradient id="paint34_linear_522_250" x1="179.897" y1="572.517" x2="193.577" y2="580.996" gradientUnits="userSpaceOnUse">
                    <stop stop-color="#925700"/>
                    <stop offset="1" stop-color="#9F4009"/>
                    </linearGradient>
                    <linearGradient id="paint35_linear_522_250" x1="249.318" y1="544.609" x2="261.69" y2="553.479" gradientUnits="userSpaceOnUse">
                    <stop stop-color="#925700"/>
                    <stop offset="1" stop-color="#9F4009"/>
                    </linearGradient>
                    <linearGradient id="paint36_linear_522_250" x1="351.939" y1="464.926" x2="364.775" y2="476.844" gradientUnits="userSpaceOnUse">
                    <stop stop-color="#925700"/>
                    <stop offset="1" stop-color="#9F4009"/>
                    </linearGradient>
                    <linearGradient id="paint37_linear_522_250" x1="232.146" y1="661.443" x2="243.249" y2="667.429" gradientUnits="userSpaceOnUse">
                    <stop stop-color="#925700"/>
                    <stop offset="1" stop-color="#9F4009"/>
                    </linearGradient>
                    <linearGradient id="paint38_linear_522_250" x1="273.209" y1="460.742" x2="279.162" y2="466.139" gradientUnits="userSpaceOnUse">
                    <stop stop-color="#925700"/>
                    <stop offset="1" stop-color="#9F4009"/>
                    </linearGradient>
                    <linearGradient id="paint39_linear_522_250" x1="170.76" y1="823.37" x2="178.514" y2="825.477" gradientUnits="userSpaceOnUse">
                    <stop stop-color="#925700"/>
                    <stop offset="1" stop-color="#9F4009"/>
                    </linearGradient>
                    <linearGradient id="paint40_linear_522_250" x1="99.0072" y1="766.271" x2="108.571" y2="769.279" gradientUnits="userSpaceOnUse">
                    <stop stop-color="#925700"/>
                    <stop offset="1" stop-color="#9F4009"/>
                    </linearGradient>
                    <clipPath id="clip0_522_250">
                    <rect width="2000" height="2000" fill="white" transform="translate(0 0.998047)"/>
                    </clipPath>
                    </defs>
                    </svg>  
                    